<svg width="326" height="820" viewBox="0 0 326 820" fill="none" xmlns="http://www.w3.org/2000/svg">
<path d="M111.66 819.803C110.675 819.803 109.69 819.212 109.493 818.227C100.625 791.228 93.53 751.42 109.887 714.569C114.025 704.912 135.111 684.22 157.577 662.346C177.087 643.23 197.188 623.326 206.647 610.32C235.222 571.103 277.197 499.764 316.02 424.09C316.808 422.711 319.173 413.842 316.02 409.901C313.261 406.551 306.955 407.536 302.225 408.916C290.992 412.266 284.883 419.952 263.009 449.315C259.659 453.847 256.505 457.986 253.943 461.533C240.74 479.269 235.222 486.561 226.354 500.158C219.062 511.194 214.333 518.486 212.165 521.836C211.574 523.018 209.997 523.216 208.815 522.624C207.632 522.033 207.436 520.456 208.027 519.274C210.195 515.727 214.924 508.435 222.216 497.399C231.281 483.605 236.798 476.313 250.002 458.577C252.761 455.03 255.717 450.891 259.067 446.359C281.73 416.01 288.037 407.93 300.649 404.186C309.517 401.624 315.823 402.413 319.37 406.551C324.691 413.054 320.947 424.09 319.961 425.864C280.942 501.735 238.966 573.468 210.194 612.684C200.538 625.888 180.24 645.792 160.73 665.105C139.644 685.797 117.966 707.277 114.222 715.948C98.6537 751.421 105.551 790.046 114.025 816.256C114.419 817.439 113.828 818.818 112.449 819.212C112.055 819.803 111.857 819.803 111.66 819.803Z" fill="white"/>
<path d="M242.514 474.737C242.12 474.737 241.725 474.54 241.331 474.343C240.149 473.752 239.755 472.175 240.543 471.19C245.076 463.701 250.199 455.03 255.717 445.571C267.541 425.273 281.139 402.216 290.007 389.209C301.831 372.065 308.728 364.97 318.976 368.32C321.341 369.109 323.115 370.685 324.1 373.05C328.238 382.509 319.962 401.822 317.4 407.537C316.809 408.719 315.429 409.31 314.247 408.719C313.064 408.128 312.473 406.749 313.064 405.566C319.37 391.969 321.932 379.947 319.765 375.021C319.173 373.838 318.582 373.247 317.597 372.853C311.487 370.882 306.955 373.05 293.948 391.968C285.08 404.778 271.68 427.835 259.855 447.936C254.338 457.395 249.214 466.066 244.681 473.555C244.09 474.343 243.302 474.737 242.514 474.737Z" fill="white"/>
<path d="M172.948 553.959C172.554 553.959 172.16 553.762 171.766 553.565C170.583 552.974 170.189 551.397 170.978 550.412C186.743 523.217 240.74 431.777 268.526 395.713C282.321 377.78 291.189 371.277 297.298 374.43C299.072 375.415 300.452 376.992 301.634 379.357C302.225 380.539 301.634 381.918 300.451 382.51C299.269 383.101 297.889 382.51 297.298 381.327C296.904 380.342 296.116 379.16 295.131 378.766C293.554 377.977 287.839 378.174 272.074 398.669C244.484 434.536 190.684 525.778 174.919 552.777C174.722 553.565 173.934 553.959 172.948 553.959Z" fill="white"/>
<path d="M136.096 578.395C135.702 578.395 135.308 578.198 134.914 578.001C133.731 577.41 133.337 575.833 134.126 574.848C165.46 523.019 190.487 484.197 208.42 459.563C233.448 425.47 241.331 423.302 245.666 425.864C247.243 426.85 248.228 428.426 248.819 430.791C249.214 431.973 248.425 433.353 247.046 433.55C245.863 433.747 244.484 433.156 244.287 431.776C243.893 430.397 243.498 430.003 243.301 429.806C242.71 429.411 237.389 427.835 212.165 462.125C194.231 486.561 169.204 525.384 138.067 577.016C137.673 578.001 136.885 578.395 136.096 578.395Z" fill="white"/>
<path d="M13.3236 819.803H13.1264C11.7469 819.606 10.9589 818.424 10.9589 817.242C12.7325 801.082 11.5501 726.196 10.9589 713.386C10.7618 711.022 8.79077 656.828 43.0807 620.37C56.2842 606.378 64.9555 599.875 111.858 582.336C120.923 578.986 127.426 576.621 132.55 574.848C145.162 570.512 148.512 569.33 157.184 562.629C161.519 559.279 167.431 553.564 173.737 547.652C193.838 528.733 218.866 504.888 233.055 515.333C237.193 518.289 239.361 522.427 239.361 527.551C239.952 552.579 190.094 596.525 160.336 620.567C154.621 625.297 149.498 629.041 144.965 632.588C135.309 640.077 128.214 645.398 123.091 651.704C122.302 652.69 120.726 652.887 119.741 652.098C118.755 651.31 118.558 649.734 119.346 648.748C124.864 641.851 132.156 636.333 142.009 628.844C146.542 625.297 151.665 621.553 157.38 616.823C206.056 577.409 235.026 544.105 234.631 527.551C234.631 524.004 233.055 521.245 230.296 519.077C219.457 510.997 195.02 534.251 177.087 551.002C170.387 557.308 164.672 562.629 160.14 566.177C150.68 573.468 146.936 574.65 134.127 579.183C129.003 580.957 122.499 583.124 113.631 586.474C67.7143 603.619 59.2404 609.926 46.628 623.326C13.7176 658.404 15.6885 710.628 15.8856 712.795C16.4768 725.802 17.4622 801.082 15.8856 817.439C15.4915 818.818 14.506 819.803 13.3236 819.803Z" fill="white"/>
<path d="M322.918 406.946C321.341 406.157 316.415 410.887 309.518 420.74C300.058 434.141 299.861 439.068 300.255 440.447C301.24 443.797 305.182 446.557 308.138 445.965C312.67 445.177 326.859 408.916 322.918 406.946Z" fill="white"/>
<path d="M323.706 369.896C321.736 369.305 311.488 395.712 309.518 401.033C309.123 402.216 307.941 404.777 308.532 404.777C311.094 404.777 312.868 405.172 314.444 405.96C318.977 408.325 327.254 371.079 323.706 369.896Z" fill="white"/>
<path d="M236.996 511.588C246.456 519.077 218.275 557.505 211.574 558.885C204.283 560.461 193.247 550.608 193.444 543.316C193.641 539.178 228.325 504.691 236.996 511.588Z" fill="white"/>
<path d="M244.09 268.407C261.721 268.407 276.015 250.584 276.015 228.599C276.015 206.614 261.721 188.791 244.09 188.791C226.458 188.791 212.165 206.614 212.165 228.599C212.165 250.584 226.458 268.407 244.09 268.407Z" fill="white"/>
<path d="M36.3799 528.537C45.9577 528.537 53.7221 518.832 53.7221 506.86C53.7221 494.887 45.9577 485.182 36.3799 485.182C26.8022 485.182 19.0378 494.887 19.0378 506.86C19.0378 518.832 26.8022 528.537 36.3799 528.537Z" fill="white"/>
<path d="M48.4017 43.355C57.9794 43.355 65.7433 33.6497 65.7433 21.6775C65.7433 9.70535 57.9794 0 48.4017 0C38.8239 0 31.0596 9.70535 31.0596 21.6775C31.0596 33.6497 38.8239 43.355 48.4017 43.355Z" fill="white"/>
<path d="M139.053 79.2218C130.185 79.2218 122.893 71.9302 122.893 63.0621C122.893 54.194 130.185 46.9026 139.053 46.9026C147.921 46.9026 155.212 54.194 155.212 63.0621C155.212 71.9302 147.921 79.2218 139.053 79.2218ZM139.053 51.6323C132.746 51.6323 127.623 56.7559 127.623 63.0621C127.623 69.3683 132.746 74.4922 139.053 74.4922C145.359 74.4922 150.482 69.3683 150.482 63.0621C150.482 56.7559 145.359 51.6323 139.053 51.6323Z" fill="white"/>
<path d="M199.947 387.042C191.079 387.042 183.787 379.751 183.787 370.883C183.787 362.015 191.079 354.723 199.947 354.723C208.815 354.723 216.106 362.015 216.106 370.883C216.106 379.751 208.815 387.042 199.947 387.042ZM199.947 359.453C193.641 359.453 188.517 364.577 188.517 370.883C188.517 377.189 193.641 382.313 199.947 382.313C206.253 382.313 211.377 377.189 211.377 370.883C211.377 364.577 206.253 359.453 199.947 359.453Z" fill="white"/>
<path d="M74.0207 121.789C74.0207 126.913 69.8819 131.051 64.7581 131.051C59.6343 131.051 55.496 126.913 55.496 121.789C55.496 116.665 59.6343 112.527 64.7581 112.527C69.8819 112.527 74.0207 116.665 74.0207 121.789Z" fill="white"/>
<path d="M113.828 480.256C118.943 480.256 123.09 476.109 123.09 470.993C123.09 465.878 118.943 461.731 113.828 461.731C108.712 461.731 104.566 465.878 104.566 470.993C104.566 476.109 108.712 480.256 113.828 480.256Z" fill="white"/>
<path d="M161.716 234.906C166.831 234.906 170.978 230.759 170.978 225.643C170.978 220.528 166.831 216.381 161.716 216.381C156.6 216.381 152.453 220.528 152.453 225.643C152.453 230.759 156.6 234.906 161.716 234.906Z" fill="white"/>
<path d="M0.119661 461.731L-20.3757 371.08L-19.3904 370.686L0.119661 456.411L19.432 370.686L20.6146 371.08L0.119661 461.731Z" fill="white"/>
<path d="M117.967 412.859L39.3368 363.198L39.9281 362.212L114.025 409.114L67.3204 334.82L68.3057 334.229L117.967 412.859Z" fill="white"/>
<path d="M75.9913 315.507L75.7941 314.325L161.322 295.012L75.7941 275.699L75.9913 274.517L166.643 295.012L75.9913 315.507Z" fill="white"/>
<path d="M68.3057 255.795L67.3204 255.204L114.025 180.909L39.9281 227.812L39.3368 226.826L117.967 177.165L68.3057 255.795Z" fill="white"/>
<path d="M19.432 219.338L0.119661 133.81L-19.3904 219.338L-20.3757 219.141L0.119661 128.292L20.6146 219.141L19.432 219.338Z" fill="white"/>
<path d="M19.2361 218.55C18.2507 218.55 17.2655 217.761 16.8713 216.776L-0.0767307 141.89L-17.0248 216.776C-17.2219 217.959 -18.6012 218.747 -19.7836 218.55C-20.966 218.353 -21.9511 216.973 -21.557 215.791L-0.0767307 120.41L21.4035 215.791C21.6006 216.973 20.8125 218.353 19.6301 218.55C19.6301 218.55 19.4331 218.55 19.2361 218.55Z" fill="white"/>
<path d="M42.2923 225.643L51.7517 170.07L19.2354 216.184L42.2923 225.643Z" fill="white"/>
<path d="M69.4879 255.203C69.0937 255.203 68.6994 255.007 68.3053 254.809C67.1229 254.021 66.926 252.642 67.5172 251.459L108.507 186.624L43.6717 227.614C42.4893 228.402 41.1099 228.008 40.3217 226.826C39.5334 225.643 39.9273 224.264 41.1097 223.476L123.682 171.252L71.4586 253.824C70.8673 254.809 70.2761 255.203 69.4879 255.203Z" fill="white"/>
<path d="M78.9472 275.896L125.061 243.183L69.4879 252.839L78.9472 275.896Z" fill="white"/>
<path d="M78.9474 316.689C77.962 316.689 76.9763 315.901 76.5821 314.915C76.3851 313.733 77.1736 312.353 78.356 312.156L153.242 295.208L78.356 278.261C77.1736 278.064 76.188 276.684 76.5821 275.502C76.7792 274.319 78.159 273.531 79.3414 273.728L174.722 295.208L79.3414 316.689C79.3414 316.689 79.1444 316.689 78.9474 316.689Z" fill="white"/>
<path d="M69.4879 337.184L125.061 346.84L78.9472 314.324L69.4879 337.184Z" fill="white"/>
<path d="M123.484 418.574L40.9127 366.351C39.7303 365.563 39.5329 364.184 40.1241 363.001C40.9124 361.819 42.2923 361.622 43.4747 362.213L108.31 403.203L67.3197 338.368C66.5314 337.185 66.9258 335.806 68.1082 335.017C69.2906 334.229 70.67 334.623 71.4583 335.806L123.484 418.574Z" fill="white"/>
<path d="M19.2354 374.036L51.7517 420.15L42.2923 364.38L19.2354 374.036Z" fill="white"/>
<path d="M0.119917 469.81L-21.3608 374.429C-21.5579 373.247 -20.7693 371.867 -19.5869 371.67C-18.4045 371.473 -17.0252 372.262 -16.8282 373.444L0.119917 448.33L17.0675 373.444C17.2646 372.262 18.6443 371.473 19.8267 371.67C21.0092 371.867 21.9943 373.247 21.6002 374.429L0.119917 469.81Z" fill="white"/>
<path d="M0.119751 380.146C47.1377 380.146 85.2532 342.03 85.2532 295.012C85.2532 247.994 47.1377 209.879 0.119751 209.879C-46.8982 209.879 -85.0139 247.994 -85.0139 295.012C-85.0139 342.03 -46.8982 380.146 0.119751 380.146Z" fill="white"/>
</svg>
