<svg width="380" height="760" viewBox="0 0 380 760" fill="none" xmlns="http://www.w3.org/2000/svg">
<path d="M299.205 80.7246C299.205 36.0869 335.277 0 379.897 0C424.516 0 460.588 36.0869 460.588 80.7246C460.588 125.362 424.516 161.449 379.897 161.449C335.277 161.449 299.205 125.217 299.205 80.7246ZM110.007 332.609C114.788 302.319 94.2166 274.058 63.9392 269.275C33.6617 264.493 5.41239 285.072 0.631736 315.362C0.0522624 318.985 -0.0926191 322.464 0.0522492 325.942C8.88921 301.449 34.0963 285.942 60.7521 290.145C87.4078 294.348 106.53 316.956 107.4 342.898C108.559 339.565 109.428 336.232 110.007 332.609ZM207.938 134.493C229.234 166.087 220.831 208.841 189.395 230.145C178.965 237.101 167.375 241.014 155.641 241.739C166.071 220.29 165.057 194.203 150.86 173.043C136.663 151.884 112.76 141.159 89.0014 142.754C94.0718 132.174 102.04 122.899 112.325 115.942C144.051 94.6377 186.787 102.899 207.938 134.493ZM146.659 128.985C146.659 124.348 142.892 120.435 138.112 120.435C133.476 120.435 129.564 124.203 129.564 128.985C129.564 133.623 133.331 137.536 138.112 137.536C142.892 137.536 146.659 133.768 146.659 128.985ZM198.522 197.536C198.522 192.899 194.755 188.985 189.975 188.985C185.339 188.985 181.427 192.754 181.427 197.536C181.427 202.174 185.194 206.087 189.975 206.087C194.755 205.942 198.522 202.174 198.522 197.536ZM198.522 163.188L190.989 151.304L196.494 138.261L182.731 141.739L172.011 132.464L171.142 146.522L158.973 153.768L172.156 158.985L175.343 172.754L184.325 161.884L198.522 163.188ZM67.416 432.174C67.416 421.449 58.7239 412.609 47.8588 412.609C37.1385 412.609 28.3016 421.304 28.3016 432.174C28.3016 442.898 36.9937 451.739 47.8588 451.739C58.7239 451.739 67.416 443.043 67.416 432.174ZM69.589 517.246C58.8688 517.246 50.0318 525.942 50.0318 536.812C50.0318 547.681 58.7239 556.377 69.589 556.377C80.3093 556.377 89.1462 547.681 89.1462 536.812C89.1462 525.942 80.3093 517.246 69.589 517.246ZM122.466 601.739C111.746 601.739 102.909 610.435 102.909 621.304C102.909 632.029 111.601 640.869 122.466 640.869C133.186 640.869 142.023 632.174 142.023 621.304C142.023 610.435 133.186 601.739 122.466 601.739ZM200.115 653.623C189.395 653.623 180.558 662.319 180.558 673.188C180.558 683.913 189.25 692.754 200.115 692.754C210.836 692.754 219.673 684.058 219.673 673.188C219.673 662.319 210.836 653.623 200.115 653.623ZM759.307 315.362C754.526 285.072 726.132 264.493 695.999 269.275C665.722 274.058 645.151 302.464 649.931 332.609C650.511 336.232 651.38 339.565 652.539 342.898C653.408 316.956 672.676 294.348 699.186 290.145C725.842 285.942 751.049 301.449 759.886 325.942C760.176 322.464 759.886 318.985 759.307 315.362ZM609.078 172.899C594.881 194.058 593.867 220.145 604.298 241.594C592.563 240.725 580.974 236.956 570.543 230C538.962 208.696 530.705 165.942 552 134.348C573.296 102.754 616.032 94.4927 647.613 115.797C658.044 122.754 665.867 132.174 670.937 142.609C647.179 141.159 623.275 151.884 609.078 172.899ZM578.366 197.536C578.366 192.899 574.6 188.985 569.819 188.985C565.183 188.985 561.272 192.754 561.272 197.536C561.272 202.174 565.038 206.087 569.819 206.087C574.6 205.942 578.366 202.174 578.366 197.536ZM600.821 153.913L588.652 146.667L587.783 132.609L577.063 141.884L563.3 138.406L568.805 151.449L561.272 163.333L575.324 162.029L584.306 172.899L587.493 159.13L600.821 153.913ZM630.229 128.985C630.229 124.348 626.463 120.435 621.682 120.435C617.046 120.435 613.135 124.203 613.135 128.985C613.135 133.623 616.901 137.536 621.682 137.536C626.463 137.536 630.229 133.768 630.229 128.985ZM712.08 412.754C701.36 412.754 692.523 421.449 692.523 432.319C692.523 443.043 701.215 451.884 712.08 451.884C722.8 451.884 731.637 443.188 731.637 432.319C731.637 421.449 722.8 412.754 712.08 412.754ZM690.35 517.246C679.629 517.246 670.792 525.942 670.792 536.812C670.792 547.681 679.484 556.377 690.35 556.377C701.07 556.377 709.907 547.681 709.907 536.812C709.907 525.942 701.215 517.246 690.35 517.246ZM637.473 601.739C626.752 601.739 617.915 610.435 617.915 621.304C617.915 632.029 626.608 640.869 637.473 640.869C648.193 640.869 657.03 632.174 657.03 621.304C657.03 610.435 648.338 601.739 637.473 601.739ZM559.823 653.623C549.103 653.623 540.266 662.319 540.266 673.188C540.266 683.913 548.958 692.754 559.823 692.754C570.543 692.754 579.38 684.058 579.38 673.188C579.38 662.319 570.688 653.623 559.823 653.623ZM502.166 690L504.339 692.609L502.166 695.217C499.993 697.826 446.826 760 379.897 760C312.968 760 259.946 697.971 257.628 695.217L255.455 692.609L257.628 690C259.801 687.391 312.968 625.217 379.897 625.217C446.826 625.362 499.848 687.391 502.166 690ZM379.897 633.623C335.712 633.623 296.742 663.623 277.33 681.884C345.563 656.956 414.375 656.956 482.608 681.884C462.906 663.623 424.082 633.623 379.897 633.623ZM423.502 674.783C413.796 673.188 404.235 672.174 394.529 671.739C401.192 676.377 405.539 684.058 405.539 692.754C405.539 706.956 394.094 718.406 379.897 718.406C365.7 718.406 354.255 706.956 354.255 692.754C354.255 684.058 358.601 676.377 365.265 671.739C355.559 672.319 345.998 673.333 336.291 674.783C333.974 680.435 332.67 686.522 332.67 692.754C332.67 718.841 353.821 740 379.897 740C405.973 740 427.124 718.841 427.124 692.754C427.124 686.377 425.965 680.435 423.502 674.783ZM492.025 694.203C472.323 686.087 452.621 680.145 432.774 676.377C434.367 681.594 435.237 687.101 435.237 692.754C435.237 723.333 410.319 748.261 379.752 748.261C349.185 748.261 324.267 723.333 324.267 692.754C324.267 687.101 325.137 681.739 326.73 676.377C307.028 680.145 287.181 686.087 267.624 694.203C280.807 708.116 326.44 751.739 379.752 751.739C433.208 751.884 478.842 708.116 492.025 694.203Z" fill="white" fill-opacity="0.1"/>
</svg>
