<svg width="368" height="880" viewBox="0 0 368 880" fill="none" xmlns="http://www.w3.org/2000/svg">
<path fill-rule="evenodd" clip-rule="evenodd" d="M385.717 75.1192C406.461 75.1192 423.277 58.3032 423.277 37.5596C423.277 16.8159 406.461 0 385.717 0C364.974 0 348.158 16.8159 348.158 37.5596C348.158 58.3032 364.974 75.1192 385.717 75.1192ZM532.358 165.533C541.129 170.031 550.35 172.28 559.572 172.28C567.589 172.28 575.473 170.628 582.745 167.488C582.904 167.441 583.067 167.37 583.235 167.274C594.727 162.187 604.648 153.366 611.075 141.467C615.142 133.819 617.325 125.663 617.788 117.534C617.93 117.083 617.951 116.605 617.85 116.154C618.561 94.6364 607.268 73.5212 587.01 62.7495C563.383 50.1855 534.908 55.6019 517.36 74.1753C516.66 74.4824 516.085 75.0966 515.829 75.8616C512.963 79.1456 510.425 82.8045 508.293 86.8147C507.864 87.6063 507.456 88.4048 507.068 89.2094C507.044 89.2238 507.02 89.2386 506.996 89.2539L506.978 89.2656L506.943 89.2886C506.123 89.9444 505.662 90.9589 505.821 91.9833C503.129 98.4222 501.684 105.204 501.466 112.055C501.254 112.658 501.225 113.313 501.437 113.887C501.437 119.654 502.302 125.454 504.019 131.122C508.517 145.966 518.638 158.335 532.358 165.533ZM539.396 65.3308C532.662 68.0986 526.481 72.2638 521.343 77.6687C524.415 94.8516 535.577 97.9059 546.527 100.534C547.176 100.714 547.819 100.889 548.455 101.061C551.784 101.964 554.904 102.81 557.547 104.132C567.443 109.305 571.267 113.803 574.64 118.077C575.09 118.527 575.484 119.033 575.877 119.539C576.15 119.889 576.423 120.24 576.714 120.572C580.407 120.503 583.764 120.839 586.785 122.35C594.148 125.644 601.01 132.943 605.933 139.36C605.998 139.238 606.063 139.116 606.128 138.993C609.886 131.97 611.872 124.457 612.248 116.973C610.28 114.369 606.876 111.071 603.654 108.856C598.93 105.707 595.107 105.257 590.609 105.032C587.46 104.807 584.086 104.357 579.588 103.233C558.897 97.6101 546.527 79.1677 543.153 73.7699C541.387 71.0223 540.134 67.761 539.396 65.3308ZM545.177 105.932C534.602 103.288 521.637 99.9086 516.922 82.9908C515.491 84.9687 514.183 87.0697 513.016 89.2886C512.613 90.0518 512.23 90.8227 511.867 91.6006C533.911 123.873 553.535 122.328 569.242 121.001L569.567 120.979L569.809 120.962C566.695 117.254 563.372 113.662 555.073 109.305C553.018 108.278 550.442 107.511 547.741 106.707C546.895 106.456 546.036 106.2 545.177 105.932ZM569.692 126.398C571.495 126.198 573.218 126.018 574.85 125.91C575.005 125.937 575.16 125.948 575.315 125.948C575.552 125.948 575.789 125.921 576.006 125.846C579.388 125.697 582.344 125.936 584.761 127.073C590.519 129.632 596.681 135.628 603.056 144.103C600.862 147.321 598.348 150.231 595.58 152.814C589.446 145.374 583.843 140.602 578.239 138.319C572.437 136.087 565.971 136.734 559.279 137.403L559.122 137.419C543.993 139.199 527.104 140.979 506.931 112.282C507.092 107.335 507.941 102.431 509.467 97.706C532.547 129.39 553.997 127.688 569.692 126.398ZM583.137 161.43C585.909 160.051 588.565 158.427 591.07 156.569C585.784 150.014 580.7 145.56 575.99 143.716C571.492 141.917 565.869 142.367 559.571 143.042C545.198 144.684 527.451 146.514 507.527 122.176C507.908 124.651 508.462 127.114 509.192 129.547C512.768 141.466 520.379 151.455 530.63 158.274C534.379 155.155 541.401 152.852 549.451 152.263C562.14 151.187 574.417 154.636 583.137 161.43ZM576.759 164.1C566.459 157.441 554.681 157.485 549.676 157.885C543.738 158.367 538.831 159.764 535.853 161.342C548.993 168.009 563.736 168.582 576.759 164.1ZM612.043 109.003C611.602 104.66 610.626 100.391 609.148 96.3C604.617 91.5195 600.078 91.3125 595.332 91.3125C595.044 91.2945 594.755 91.278 594.465 91.2614C591.126 91.0704 587.658 90.8719 584.761 88.3887C582.391 86.4498 581.053 84.3044 579.956 82.5457L579.813 82.3162C578.689 80.292 577.564 78.9425 575.315 77.3682C573.354 75.9958 571.394 75.4779 569.284 74.9206C568.974 74.8386 568.66 74.7558 568.343 74.6693C568.16 74.6204 567.975 74.5716 567.788 74.5223C564.532 73.6634 560.738 72.6625 557.547 69.0466C555.472 66.7984 554.195 64.4173 553.511 61.6987C550.475 62.0447 547.478 62.6541 544.556 63.5152C545.408 65.8543 546.46 68.666 547.876 71.2958C550.8 76.2438 562.27 93.112 581.163 98.5098C584.986 99.6343 588.135 99.8593 591.284 100.084C596.232 100.534 600.955 100.984 606.802 104.807C608.714 106.024 610.491 107.508 612.043 109.003ZM584.311 67.6975C593.164 72.3565 600.139 79.2407 604.914 87.3133C601.613 86.1772 598.448 86.04 595.712 85.9214L595.557 85.9147H595.556C592.408 85.9147 589.934 85.9147 588.135 84.3404C586.336 82.7661 585.436 81.4165 584.311 79.6173C582.962 77.3682 581.388 75.1191 578.239 72.87C575.221 70.9299 572.409 70.2295 569.805 69.5805L569.467 69.4964L569.267 69.4394L569.107 69.3943L568.932 69.3454L568.793 69.3068L568.5 69.2256C565.801 68.4779 563.586 67.8644 561.371 65.4481C560.188 64.1172 559.394 62.8836 558.925 61.3637C567.509 61.2776 576.234 63.3045 584.311 67.6975ZM293.055 699.914C304.076 711.61 329.266 731.402 376.946 731.402C411.132 731.402 445.093 706.887 452.29 685.295C452.515 684.846 452.74 684.396 452.74 683.946V683.721C452.965 681.922 451.616 680.572 450.716 679.673C442.394 671.801 390.89 647.736 383.244 649.31C377.396 650.66 374.022 654.933 371.548 658.306L371.437 658.451C369.254 661.29 367.916 663.03 365.926 663.03C363.002 663.03 361.203 661.005 358.504 657.857L358.362 657.693C355.464 654.347 351.88 650.21 345.684 650.21C340.961 650.21 308.124 657.857 287.208 676.524C286.308 676.749 285.408 677.199 284.734 677.649C283.384 678.773 282.485 680.347 282.26 682.372V683.046C282.71 685.97 286.758 693.167 293.055 699.914ZM376.946 726.004C315.321 726.004 291.031 691.143 287.882 683.271C288.557 682.597 289.232 681.922 290.132 681.247C294.405 680.797 304.301 683.046 313.747 685.295C314.259 685.415 314.774 685.535 315.294 685.656C331.442 689.422 351.298 694.053 371.998 693.617C375.136 693.617 378.219 693.56 381.273 693.503H381.278H381.282H381.287H381.291H381.296H381.3H381.305H381.31H381.314H381.319H381.323H381.328H381.332H381.337H381.341H381.346H381.351H381.355H381.36H381.364H381.369H381.374H381.378H381.383H381.387C384.423 693.447 387.432 693.392 390.441 693.392L392.845 693.351C417.827 692.926 434.595 692.641 443.969 690.243C433.623 706.662 406.634 726.004 376.946 726.004ZM314.871 680.123C307.225 678.323 300.927 676.974 295.979 676.299C315.546 661.68 341.86 655.608 345.459 655.608C349.22 655.608 351.458 658.219 354.099 661.302L354.23 661.455C354.326 661.558 354.421 661.661 354.517 661.765L354.739 662.006L354.793 662.065L354.795 662.067L354.796 662.068L354.797 662.069C357.568 665.08 360.65 668.427 365.701 668.427H365.926C370.38 668.427 373.034 665.026 375.397 661.997L375.406 661.986L375.625 661.706C375.69 661.622 375.756 661.539 375.822 661.455C378.071 658.306 380.32 655.383 384.143 654.483C390.665 653.808 440.37 676.974 446.893 683.496C442.619 687.32 412.482 687.769 390.216 687.994C384.143 687.994 378.071 687.994 371.773 688.219C351.307 688.669 331.065 683.946 314.871 680.123ZM378.07 879.841C374.247 879.841 370.649 879.616 367.05 879.166C307.899 872.869 237.728 808.32 174.304 702.163C103.859 583.932 96.5218 455.184 98.9411 344.937C78.7038 339.846 61.0888 334.161 46.5561 327.99V378.856C63.18 380.227 76.244 394.154 76.244 411.132C76.244 429.019 61.7439 443.519 43.8572 443.519C25.9704 443.519 11.4703 429.019 11.4703 411.132C11.4703 394.154 24.5343 380.227 41.1582 378.856V325.611C14.8012 313.541 0 299.734 0 284.958C0 256.004 56.8356 230.771 146.087 215.034C145.913 210.574 146.333 206.018 147.408 201.463C153.802 174.384 180.937 157.617 208.015 164.01C227.625 168.641 241.827 184.149 245.741 202.635C283.697 199.574 324.635 197.919 367.5 197.919C573.516 197.919 735 236.153 735 284.958C735 298.192 723.127 310.648 701.714 321.776V392.423L703.963 398.087L720.606 396.963L708.011 407.758L714.083 423.052L700.139 414.281L687.319 425.076L691.368 408.883L677.198 400.112L693.842 398.762L696.316 389.004V324.457C682.874 330.847 666.224 336.765 646.833 342.102C646.473 490.082 619.727 622.761 573.066 706.436L571.716 708.91C495.023 847.679 425.751 879.841 378.07 879.841ZM43.2366 320.556C19.0792 309.73 5.39785 297.623 5.39785 284.958C5.39785 259.354 61.3192 236.026 146.675 220.968C149.799 240.534 164.381 257.233 184.861 262.069C211.939 268.463 239.073 251.695 245.467 224.617C246.756 219.157 247.104 213.695 246.615 208.401C284.609 205.262 325.35 203.542 367.5 203.542C563.845 203.542 729.602 240.876 729.602 284.958C729.602 329.04 563.845 366.375 367.5 366.375C229.87 366.375 107.268 348.031 46.251 321.877C45.8144 321.029 44.9427 320.494 43.8571 320.494C43.6412 320.494 43.4338 320.515 43.2366 320.556ZM641.435 343.554C641.123 490.049 614.402 621.234 568.343 703.963L566.993 706.436C485.577 853.526 413.606 878.491 367.725 873.768C310.148 867.921 241.551 804.272 179.027 699.464C109.536 582.828 102.202 455.536 104.315 346.259C127.653 351.882 154.277 356.737 183.525 360.667V445.639L179.927 456.563H159.46L175.878 468.708L169.581 487.826L185.999 476.13L202.417 488.051L196.345 468.708L212.763 456.788H192.521L188.923 445.736V361.378C240.784 368.071 300.597 371.891 364.801 371.996V519.789C353.195 519.407 342.129 513.096 336.238 502.22C335.113 500.196 334.214 498.172 333.764 496.147C331.29 504.469 331.964 513.69 336.238 522.012C345.009 538.43 365.476 544.503 381.669 535.506C396.063 527.859 402.361 511.216 397.863 496.147C395.389 504.244 389.766 511.441 381.669 515.939C377.981 517.859 374.1 519.041 370.199 519.537V371.996C427.822 371.902 481.909 368.815 529.884 363.344V440.286C516.985 441.633 506.943 452.527 506.943 465.785C506.943 479.954 518.413 491.425 532.583 491.425C546.752 491.425 558.222 479.954 558.222 465.785C558.222 452.527 548.18 441.633 535.281 440.286V362.716C575.683 357.911 611.595 351.399 641.435 343.554ZM279.111 304.526L281.135 331.74L295.529 308.124L321.844 314.647L304.301 293.955L318.695 270.79L293.505 281.135L275.962 260.444L277.986 287.658L252.797 298.004L279.111 304.526ZM284.284 300.028L270.115 296.654L283.609 290.806L282.485 276.412L291.931 287.433L305.425 282.035L297.779 294.405L307.225 305.425L293.055 302.052L285.409 314.422L284.284 300.028ZM454.539 146.415L460.612 153.387L469.158 150.014L464.211 157.661L470.058 164.858L461.287 162.609L456.339 170.48L455.664 161.259L446.893 159.01L455.214 155.636L454.539 146.415ZM290.132 90.413L284.059 83.4409L284.734 92.6621L276.187 96.0357L285.184 98.2848L285.858 107.506L290.806 99.6343L299.578 101.883L293.73 94.9112L298.453 87.0394L290.132 90.413ZM671.801 173.629L680.122 183.525L692.042 178.577L685.295 189.598L693.617 199.493L681.022 196.345L674.275 207.365L673.375 194.321L660.78 191.397L672.7 186.449L671.801 173.629ZM127.523 112.004L119.201 102.108L120.101 114.928L108.181 119.876L120.776 123.025L121.675 135.844L128.648 124.824L141.017 127.973L132.696 118.077L139.668 107.056L127.523 112.004ZM602.304 272.364C602.304 283.667 593.141 292.83 581.837 292.83C570.534 292.83 561.371 283.667 561.371 272.364C561.371 261.06 570.534 251.897 581.837 251.897C593.141 251.897 602.304 261.06 602.304 272.364ZM413.381 303.851C408.658 303.851 403.935 302.951 399.437 300.927C390.89 297.103 384.143 290.356 380.769 281.585C378.823 276.524 378 271.238 378.386 266.031C371.073 258.711 370.975 253.684 372.223 250.773C373.518 247.752 377.297 244.317 387.731 244.837C397.553 234.317 413.344 230.586 427.325 236.603C435.872 240.426 442.619 247.174 445.993 255.945C447.944 261.019 448.767 266.318 448.374 271.539C455.66 278.763 455.594 283.772 454.315 286.758C453.415 289.457 450.041 292.606 441.045 292.606H441.044C440.4 292.606 439.756 292.606 439.088 292.581C435.565 296.419 431.214 299.449 426.201 301.377C422.153 302.951 417.879 303.851 413.381 303.851ZM432.01 291.792C429.756 293.608 427.207 295.098 424.402 296.204C416.98 299.127 408.883 298.903 401.686 295.754C394.489 292.605 388.866 286.983 385.942 279.561C384.832 276.741 384.175 273.824 383.961 270.896C390.147 275.698 398.118 280.34 406.859 284.059C415.549 287.757 424.391 290.543 432.01 291.792ZM436.748 286.961C428.697 286.248 418.9 283.341 408.883 279.111C399.151 274.909 390.289 269.618 384.222 264.31C384.613 261.76 385.339 259.252 386.392 256.845C387.545 254.154 389.074 251.717 390.893 249.572C390.916 249.548 390.938 249.524 390.959 249.5L390.969 249.488L390.986 249.469C390.995 249.458 391.005 249.446 391.014 249.434C391.027 249.418 391.04 249.402 391.053 249.385C396.683 242.859 405.018 239.077 413.606 239.077C417.43 239.077 421.478 239.752 425.301 241.551C432.498 244.7 438.121 250.322 441.045 257.744C442.737 262.039 443.374 266.56 443.001 271.002C442.643 271.652 442.548 272.397 442.748 273.103C442.354 275.616 441.633 278.087 440.595 280.46C439.568 282.808 438.278 284.988 436.748 286.961ZM443.264 287.035C447.139 286.694 449.123 285.601 449.591 284.509C450.08 283.368 449.625 281.166 447.199 278.157C446.762 279.696 446.211 281.216 445.543 282.709C444.872 284.209 444.111 285.654 443.264 287.035ZM383.531 250.357C379.608 250.715 377.665 251.868 377.171 253.022C376.705 254.11 377.206 256.274 379.566 259.364C380.003 257.827 380.553 256.31 381.219 254.821C381.892 253.257 382.667 251.767 383.531 250.357ZM48.805 222.659C38.6842 222.659 30.5874 214.562 30.5874 204.442C30.5874 194.321 38.6842 186.224 48.805 186.224C58.9259 186.224 67.0226 194.321 67.0226 204.442C67.0226 214.562 58.701 222.659 48.805 222.659ZM48.805 191.622C41.8329 191.622 35.9853 197.469 35.9853 204.442C35.9853 211.414 41.8329 217.261 48.805 217.261C55.7772 217.261 61.6248 211.414 61.6248 204.442C61.6248 197.469 55.7772 191.622 48.805 191.622ZM348.833 149.789C348.833 156.311 354.23 161.709 360.753 161.709C367.275 161.709 372.673 156.311 372.673 149.789C372.673 143.266 367.275 137.869 360.753 137.869C354.23 137.869 348.833 143.266 348.833 149.789ZM354.23 150.014C354.23 146.415 357.154 143.491 360.753 143.491C364.351 143.491 367.275 146.415 367.275 150.014C367.275 153.612 364.351 156.536 360.753 156.536C357.154 156.536 354.23 153.612 354.23 150.014ZM502.67 319.595C496.147 319.595 490.75 314.197 490.75 307.674C490.75 301.152 496.147 295.754 502.67 295.754C509.192 295.754 514.59 301.152 514.59 307.674C514.59 314.197 509.192 319.595 502.67 319.595ZM502.67 301.152C499.071 301.152 496.147 304.076 496.147 307.674C496.147 311.273 499.071 314.197 502.67 314.197C506.268 314.197 509.192 311.273 509.192 307.674C509.192 304.076 506.268 301.152 502.67 301.152ZM134.045 292.83C134.045 299.353 139.443 304.751 145.965 304.751C152.488 304.751 157.886 299.353 157.886 292.83C157.886 286.308 152.488 280.91 145.965 280.91C139.443 280.91 134.045 286.308 134.045 292.83ZM139.443 293.055C139.443 289.457 142.367 286.533 145.965 286.533C149.564 286.533 152.488 289.232 152.488 293.055C152.488 296.654 149.564 299.578 145.965 299.578C142.367 299.578 139.443 296.654 139.443 293.055ZM512.341 465.785C512.341 454.54 521.562 445.543 532.583 445.543C543.603 445.543 552.599 454.765 552.824 465.785C552.824 477.031 543.603 486.027 532.583 486.027C521.337 486.027 512.341 476.806 512.341 465.785Z" fill="white" fill-opacity="0.1"/>
</svg>
