<svg width="50" height="48" viewBox="0 0 50 48" fill="none" xmlns="http://www.w3.org/2000/svg">
<path d="M0 6.25C0 4.5924 0.65848 3.00269 1.83058 1.83058C3.00269 0.65848 4.5924 0 6.25 0L43.75 0C45.4076 0 46.9973 0.65848 48.1694 1.83058C49.3415 3.00269 50 4.5924 50 6.25V31.25C50 32.9076 49.3415 34.4973 48.1694 35.6694C46.9973 36.8415 45.4076 37.5 43.75 37.5H35.9375C35.4524 37.5 34.9739 37.613 34.54 37.8299C34.106 38.0469 33.7286 38.3619 33.4375 38.75L27.5 46.6656C27.2089 47.0537 26.8315 47.3687 26.3975 47.5857C25.9636 47.8027 25.4851 47.9156 25 47.9156C24.5149 47.9156 24.0364 47.8027 23.6025 47.5857C23.1685 47.3687 22.7911 47.0537 22.5 46.6656L16.5625 38.75C16.2714 38.3619 15.894 38.0469 15.46 37.8299C15.0261 37.613 14.5476 37.5 14.0625 37.5H6.25C4.5924 37.5 3.00269 36.8415 1.83058 35.6694C0.65848 34.4973 0 32.9076 0 31.25V6.25ZM15.625 18.75C15.625 17.9212 15.2958 17.1263 14.7097 16.5403C14.1237 15.9542 13.3288 15.625 12.5 15.625C11.6712 15.625 10.8763 15.9542 10.2903 16.5403C9.70424 17.1263 9.375 17.9212 9.375 18.75C9.375 19.5788 9.70424 20.3737 10.2903 20.9597C10.8763 21.5458 11.6712 21.875 12.5 21.875C13.3288 21.875 14.1237 21.5458 14.7097 20.9597C15.2958 20.3737 15.625 19.5788 15.625 18.75ZM28.125 18.75C28.125 17.9212 27.7958 17.1263 27.2097 16.5403C26.6237 15.9542 25.8288 15.625 25 15.625C24.1712 15.625 23.3763 15.9542 22.7903 16.5403C22.2042 17.1263 21.875 17.9212 21.875 18.75C21.875 19.5788 22.2042 20.3737 22.7903 20.9597C23.3763 21.5458 24.1712 21.875 25 21.875C25.8288 21.875 26.6237 21.5458 27.2097 20.9597C27.7958 20.3737 28.125 19.5788 28.125 18.75ZM37.5 21.875C38.3288 21.875 39.1237 21.5458 39.7097 20.9597C40.2958 20.3737 40.625 19.5788 40.625 18.75C40.625 17.9212 40.2958 17.1263 39.7097 16.5403C39.1237 15.9542 38.3288 15.625 37.5 15.625C36.6712 15.625 35.8763 15.9542 35.2903 16.5403C34.7042 17.1263 34.375 17.9212 34.375 18.75C34.375 19.5788 34.7042 20.3737 35.2903 20.9597C35.8763 21.5458 36.6712 21.875 37.5 21.875Z" fill="#C5AB90"/>
</svg>
