<svg width="50" height="50" viewBox="0 0 50 50" fill="none" xmlns="http://www.w3.org/2000/svg">
<path d="M41.6667 4.16663H8.33334V8.33329L20.4375 17.4166C16.764 18.6279 13.7218 21.2482 11.9795 24.7016C10.2372 28.155 9.93734 32.1589 11.1458 35.8333C11.7437 37.6535 12.6946 39.338 13.9441 40.7903C15.1936 42.2427 16.7172 43.4345 18.4277 44.2975C20.1382 45.1604 22.0021 45.6777 23.9127 45.8197C25.8234 45.9617 27.7432 45.7256 29.5625 45.125C32.4802 44.166 35.0206 42.3103 36.8216 39.8226C38.6226 37.3348 39.5922 34.342 39.5922 31.2708C39.5922 28.1996 38.6226 25.2067 36.8216 22.719C35.0206 20.2313 32.4802 18.3756 29.5625 17.4166L41.6667 8.33329V4.16663ZM31.125 40.625L25 37.0416L18.875 40.625L20.5 33.6875L15.1042 29.0208L22.2083 28.4166L25 21.875L27.7917 28.4166L34.8958 29.0208L29.5 33.6875L31.125 40.625Z" fill="#C5AB90"/>
</svg>
