<svg width="50" height="50" viewBox="0 0 50 50" fill="none" xmlns="http://www.w3.org/2000/svg">
<path d="M45 25C45 19.6957 42.8929 14.6086 39.1421 10.8579C35.3914 7.10714 30.3043 5 25 5C19.6957 5 14.6086 7.10714 10.8579 10.8579C7.10714 14.6086 5 19.6957 5 25C5 30.3043 7.10714 35.3914 10.8579 39.1421C14.6086 42.8929 19.6957 45 25 45C30.3043 45 35.3914 42.8929 39.1421 39.1421C42.8929 35.3914 45 30.3043 45 25ZM23.77 22.275C23.8222 21.9868 23.9739 21.7261 24.1987 21.5383C24.4235 21.3506 24.7071 21.2477 25 21.2477C25.2929 21.2477 25.5765 21.3506 25.8013 21.5383C26.0261 21.7261 26.1778 21.9868 26.23 22.275L26.25 22.5V33.755L26.23 33.98C26.1778 34.2682 26.0261 34.5289 25.8013 34.7167C25.5765 34.9044 25.2929 35.0073 25 35.0073C24.7071 35.0073 24.4235 34.9044 24.1987 34.7167C23.9739 34.5289 23.8222 34.2682 23.77 33.98L23.75 33.755V22.5L23.77 22.275ZM23.125 16.875C23.125 16.3777 23.3225 15.9008 23.6742 15.5492C24.0258 15.1975 24.5027 15 25 15C25.4973 15 25.9742 15.1975 26.3258 15.5492C26.6775 15.9008 26.875 16.3777 26.875 16.875C26.875 17.3723 26.6775 17.8492 26.3258 18.2008C25.9742 18.5525 25.4973 18.75 25 18.75C24.5027 18.75 24.0258 18.5525 23.6742 18.2008C23.3225 17.8492 23.125 17.3723 23.125 16.875Z" fill="#C5AB90"/>
</svg>
