<svg width="50" height="50" viewBox="0 0 50 50" fill="none" xmlns="http://www.w3.org/2000/svg">
<path d="M25 18.4914C21.416 18.4914 18.4912 21.4162 18.4912 25.0002C18.4912 28.5842 21.416 31.509 25 31.509C28.584 31.509 31.5088 28.5842 31.5088 25.0002C31.5088 21.4162 28.584 18.4914 25 18.4914ZM44.5215 25.0002C44.5215 22.3049 44.5459 19.634 44.3946 16.9436C44.2432 13.8186 43.5303 11.0452 41.2452 8.76C38.9551 6.46996 36.1866 5.76195 33.0616 5.61058C30.3662 5.45922 27.6953 5.48363 25.0049 5.48363C22.3096 5.48363 19.6387 5.45922 16.9483 5.61058C13.8233 5.76195 11.0498 6.47484 8.76468 8.76C6.47464 11.05 5.76663 13.8186 5.61527 16.9436C5.4639 19.6389 5.48831 22.3098 5.48831 25.0002C5.48831 27.6907 5.4639 30.3664 5.61527 33.0569C5.76663 36.1819 6.47953 38.9553 8.76468 41.2405C11.0547 43.5305 13.8233 44.2385 16.9483 44.3899C19.6436 44.5412 22.3145 44.5168 25.0049 44.5168C27.7002 44.5168 30.3711 44.5412 33.0616 44.3899C36.1866 44.2385 38.96 43.5256 41.2452 41.2405C43.5352 38.9504 44.2432 36.1819 44.3946 33.0569C44.5508 30.3664 44.5215 27.6955 44.5215 25.0002ZM25 35.0149C19.458 35.0149 14.9854 30.5422 14.9854 25.0002C14.9854 19.4582 19.458 14.9856 25 14.9856C30.542 14.9856 35.0147 19.4582 35.0147 25.0002C35.0147 30.5422 30.542 35.0149 25 35.0149ZM35.4248 16.9143C34.1309 16.9143 33.086 15.8694 33.086 14.5754C33.086 13.2815 34.1309 12.2366 35.4248 12.2366C36.7188 12.2366 37.7637 13.2815 37.7637 14.5754C37.7641 14.8827 37.7039 15.187 37.5865 15.4709C37.4691 15.7549 37.2968 16.0129 37.0795 16.2301C36.8623 16.4474 36.6043 16.6196 36.3203 16.737C36.0364 16.8544 35.7321 16.9147 35.4248 16.9143Z" fill="white"/>
</svg>
