<svg width="200" height="75" viewBox="0 0 200 75" fill="none" xmlns="http://www.w3.org/2000/svg">
<path d="M87.9604 23.9767H93.4486L94.347 25.9883H94.679V23.586H84.5816V23.7618L85.8511 24.0548V36.7888L84.5816 37.1013V37.2576H90.6947C93.7415 37.2576 95.8508 35.7928 95.8508 33.3709C95.8508 30.9491 93.7415 29.5039 90.6947 29.5039H87.9604V23.9767ZM87.9604 36.867V29.8945H90.3041C92.2962 29.8945 93.7025 31.0468 93.7025 33.3709C93.7025 35.6951 92.2962 36.867 90.3041 36.867H87.9604ZM105.99 32.3749L106.263 32.121C106.341 31.8671 106.361 31.5741 106.361 31.3397C106.361 29.0156 104.525 27.4141 101.986 27.4141C99.1538 27.4141 97.0836 29.3867 97.0836 32.4921C97.0836 35.2459 98.7241 37.3552 102.123 37.3552C103.841 37.3552 105.091 36.7888 106.048 35.8318L105.833 35.5975C104.994 36.4373 104.056 36.7498 102.962 36.7498C100.423 36.7498 99.1734 35.1092 99.1734 32.3749H105.99ZM102.064 27.707C103.509 27.707 104.369 29.0742 104.369 31.789L99.1734 32.0819C99.2515 29.0547 100.658 27.707 102.064 27.707ZM109.792 34.3475C109.636 35.7732 109.265 36.6131 108.894 36.6131C108.835 36.6131 108.777 36.5935 108.718 36.574V35.9099C108.718 35.2654 108.288 34.8553 107.644 34.8553C107.058 34.8553 106.648 35.2264 106.648 35.949C106.648 37.0037 107.507 37.3552 108.21 37.3552C109.343 37.3552 109.987 36.3396 110.202 34.2889L110.866 27.8828H114.128V36.6912L113.093 37.0623V37.2576H117.311V37.0623L116.14 36.6912V27.9609L117.311 27.668V27.4922H109.304V27.668L110.476 27.9609L109.792 34.3475ZM124.851 36.0857C124.949 37.0037 125.476 37.2966 126.296 37.2966C127.077 37.2966 127.702 37.1404 128.074 36.7693L127.937 36.6326C127.781 36.7888 127.488 36.8474 127.292 36.8474C126.98 36.8474 126.824 36.7302 126.824 36.3592V30.4023C126.824 28.7226 125.417 27.4336 122.8 27.4336C120.847 27.4336 118.953 28.293 118.953 29.8359C118.953 30.6366 119.46 31.0663 120.125 31.0663C120.808 31.0663 121.316 30.5781 121.316 29.7773V28.1953C121.785 27.8828 122.253 27.7461 122.761 27.7461C124.07 27.7461 124.792 28.6836 124.792 30.0312V31.8671C120.964 32.4921 118.66 32.8241 118.66 35.1092C118.66 36.4763 119.48 37.3748 121.296 37.3748C122.644 37.3748 123.894 36.867 124.792 36.0271L124.851 36.0857ZM124.792 35.5779C124.148 36.2615 123.23 36.6912 122.351 36.6912C121.355 36.6912 120.73 36.0662 120.73 34.8553C120.73 32.746 122.039 32.5897 124.792 32.16V35.5779ZM128.677 36.7888C129.048 37.1599 129.712 37.3552 130.376 37.3552C131.704 37.3552 131.978 36.5545 132.31 35.4021L132.583 34.367C132.915 33.2342 133.521 32.6678 134.927 32.6678H135.903V36.6912L134.732 37.0623V37.2576H139.106V37.0623L137.935 36.6912V27.9609L139.106 27.668V27.4922H133.579C131.353 27.4922 129.829 28.4492 129.829 30.0117C129.829 31.3983 131.04 32.3163 132.896 32.4921C131.685 32.7069 131.001 33.2928 130.669 34.3865L130.396 35.3045C130.103 36.3201 129.947 36.867 129.4 36.867C129.282 36.867 129.048 36.8279 128.814 36.6521L128.677 36.7888ZM134.282 32.2968C132.857 32.2968 131.9 31.5351 131.9 30.0703C131.9 28.6054 132.857 27.8633 134.282 27.8633H135.903V32.2968H134.282ZM156.627 36.5154C156.276 36.7498 155.983 36.8084 155.787 36.8084C154.928 36.8084 154.635 35.949 154.284 34.4451L153.854 32.6678C153.405 30.7734 152.174 30.0703 149.596 30.0703H149.225C150.319 29.6015 150.827 28.6836 151.1 27.668L151.471 26.2422C151.764 25.1094 152.194 24.0743 152.936 24.0743C153.073 24.0743 153.17 24.0938 153.268 24.1524V24.9141C153.268 25.6563 153.698 26.1641 154.44 26.1641C155.123 26.1641 155.592 25.7344 155.592 24.9532C155.592 23.8985 154.713 23.4689 153.717 23.4689C152.018 23.4689 151.452 24.7579 151.061 26.2618L150.67 27.668C150.26 29.1328 149.323 30.0507 147.428 30.0507V24.1524L148.698 23.7813V23.586H144.049V23.7813L145.319 24.1524V36.6912L144.049 37.0623V37.2576H148.698V37.0623L147.428 36.6912V30.4218H148.913C150.807 30.4218 151.51 31.2812 151.842 32.7655L152.252 34.6014C152.662 36.3592 153.287 37.3748 154.889 37.3748C155.651 37.3748 156.334 37.1404 156.783 36.6716L156.627 36.5154ZM164.256 36.0857C164.353 37.0037 164.881 37.2966 165.701 37.2966C166.482 37.2966 167.107 37.1404 167.478 36.7693L167.342 36.6326C167.185 36.7888 166.892 36.8474 166.697 36.8474C166.385 36.8474 166.228 36.7302 166.228 36.3592V30.4023C166.228 28.7226 164.822 27.4336 162.205 27.4336C160.252 27.4336 158.357 28.293 158.357 29.8359C158.357 30.6366 158.865 31.0663 159.529 31.0663C160.213 31.0663 160.721 30.5781 160.721 29.7773V28.1953C161.189 27.8828 161.658 27.7461 162.166 27.7461C163.475 27.7461 164.197 28.6836 164.197 30.0312V31.8671C160.369 32.4921 158.065 32.8241 158.065 35.1092C158.065 36.4763 158.885 37.3748 160.701 37.3748C162.049 37.3748 163.299 36.867 164.197 36.0271L164.256 36.0857ZM164.197 35.5779C163.553 36.2615 162.635 36.6912 161.756 36.6912C160.76 36.6912 160.135 36.0662 160.135 34.8553C160.135 32.746 161.443 32.5897 164.197 32.16V35.5779ZM168.14 41.1637H173.101V40.9684L171.343 40.5973V36.8279C171.89 37.1209 172.613 37.3552 173.629 37.3552C176.617 37.3552 178.375 35.4803 178.375 32.16C178.375 29.3671 177.144 27.4141 174.547 27.4141C173.218 27.4141 172.125 27.9414 171.343 28.7617L171.285 28.7031L171.343 27.6289L171.09 27.3555L168.14 27.668V27.8828L169.312 28.1367V40.5973L168.14 40.9684V41.1637ZM171.343 29.1914C171.949 28.4687 172.73 28.0976 173.57 28.0976C175.23 28.0976 176.304 29.8554 176.304 32.4725C176.304 35.3826 175.211 37.0623 173.257 37.0623C172.613 37.0623 172.008 36.8865 171.343 36.5349V29.1914ZM187.796 27.8828L188.401 29.621H188.733V27.4922H179.495V29.621H179.808L180.413 27.8828H183.089V36.6912L181.917 37.0623V37.2576H186.292V37.0623L185.12 36.6912V27.8828H187.796ZM196.012 36.0857C196.11 37.0037 196.637 37.2966 197.458 37.2966C198.239 37.2966 198.864 37.1404 199.235 36.7693L199.098 36.6326C198.942 36.7888 198.649 36.8474 198.454 36.8474C198.141 36.8474 197.985 36.7302 197.985 36.3592V30.4023C197.985 28.7226 196.579 27.4336 193.962 27.4336C192.009 27.4336 190.114 28.293 190.114 29.8359C190.114 30.6366 190.622 31.0663 191.286 31.0663C191.969 31.0663 192.477 30.5781 192.477 29.7773V28.1953C192.946 27.8828 193.415 27.7461 193.923 27.7461C195.231 27.7461 195.954 28.6836 195.954 30.0312V31.8671C192.126 32.4921 189.821 32.8241 189.821 35.1092C189.821 36.4763 190.641 37.3748 192.458 37.3748C193.805 37.3748 195.055 36.867 195.954 36.0271L196.012 36.0857ZM195.954 35.5779C195.309 36.2615 194.391 36.6912 193.512 36.6912C192.516 36.6912 191.891 36.0662 191.891 34.8553C191.891 32.746 193.2 32.5897 195.954 32.16V35.5779Z" fill="#35424B"/>
<path d="M92.0005 48.4847V55.9734H91.13V50.6945L88.7752 53.8864H88.4627L86.0967 50.6722V55.9734H85.2261V48.4847H85.5386L88.6078 52.7369L91.6992 48.4847H92.0005ZM95.864 50.4155C96.5039 50.4155 97.0173 50.6052 97.4042 50.9847C97.7911 51.3641 97.9845 51.911 97.9845 52.6253V55.9734H97.181V55.2703C96.9801 55.5381 96.7234 55.7427 96.4109 55.8841C96.0984 56.0255 95.745 56.0962 95.3507 56.0962C94.7926 56.0962 94.3351 55.9585 93.9779 55.6832C93.6282 55.4079 93.4534 55.0359 93.4534 54.5672C93.4534 54.1059 93.632 53.7376 93.9891 53.4623C94.3462 53.187 94.8187 53.0494 95.4065 53.0494H97.1252V52.5806C97.1252 52.1342 97.0061 51.7957 96.768 51.565C96.5374 51.3269 96.2174 51.2079 95.8082 51.2079C95.4809 51.2079 95.1907 51.2823 94.9377 51.4311C94.6848 51.5725 94.4467 51.7882 94.2235 52.0784L93.6543 51.6097C93.8998 51.2079 94.216 50.9103 94.6029 50.7168C94.9898 50.5159 95.4102 50.4155 95.864 50.4155ZM95.4623 55.3819C95.7599 55.3819 96.0352 55.3186 96.2881 55.1922C96.5411 55.0582 96.742 54.8759 96.8908 54.6453C97.047 54.4146 97.1252 54.1617 97.1252 53.8864V53.7525H95.5069C95.1274 53.7525 94.8373 53.8194 94.6364 53.9534C94.4355 54.0798 94.3351 54.2696 94.3351 54.5225C94.3351 54.7978 94.4429 55.0099 94.6587 55.1587C94.8745 55.3075 95.1423 55.3819 95.4623 55.3819ZM102.263 56.0962C101.742 56.0962 101.262 55.9697 100.823 55.7167C100.391 55.4637 100.049 55.1215 99.7961 54.6899C99.5431 54.251 99.4166 53.7711 99.4166 53.2502C99.4166 52.7294 99.5431 52.2532 99.7961 51.8217C100.049 51.3902 100.391 51.0479 100.823 50.7949C101.262 50.542 101.742 50.4155 102.263 50.4155C102.739 50.4155 103.17 50.5234 103.557 50.7391C103.944 50.9475 104.26 51.2339 104.506 51.5985L103.892 52.0896C103.453 51.5018 102.914 51.2079 102.274 51.2079C101.902 51.2079 101.563 51.3009 101.258 51.4869C100.96 51.6655 100.726 51.911 100.555 52.2235C100.384 52.536 100.298 52.8782 100.298 53.2502C100.298 53.6297 100.384 53.9757 100.555 54.2882C100.726 54.6007 100.96 54.8499 101.258 55.0359C101.563 55.2145 101.902 55.3038 102.274 55.3038C102.914 55.3038 103.449 55.0136 103.881 54.4332L104.495 54.9131C104.249 55.2777 103.933 55.5679 103.546 55.7837C103.167 55.992 102.739 56.0962 102.263 56.0962ZM107.059 51.3083H105.229V50.5383H109.738V51.3083H107.907V55.9734H107.059V51.3083ZM115.712 53.5181H111.415C111.467 54.0538 111.68 54.4853 112.052 54.8127C112.424 55.1401 112.877 55.3038 113.413 55.3038C114.031 55.3038 114.585 55.0582 115.076 54.5672L115.578 55.1475C115.296 55.4451 114.968 55.6795 114.596 55.8506C114.232 56.0143 113.833 56.0962 113.402 56.0962C112.866 56.0962 112.379 55.9734 111.94 55.7279C111.501 55.4749 111.155 55.1326 110.902 54.7011C110.649 54.2696 110.523 53.7897 110.523 53.2614C110.523 52.7406 110.645 52.2644 110.891 51.8329C111.136 51.3939 111.471 51.0479 111.895 50.7949C112.319 50.542 112.788 50.4155 113.302 50.4155C113.763 50.4155 114.183 50.5197 114.563 50.728C114.942 50.9363 115.24 51.2265 115.455 51.5985C115.671 51.9705 115.779 52.3946 115.779 52.8708C115.779 53.0791 115.757 53.2949 115.712 53.5181ZM113.279 51.1967C112.825 51.1967 112.431 51.3418 112.096 51.632C111.761 51.9147 111.546 52.2904 111.449 52.7592H114.897C114.89 52.2756 114.73 51.8961 114.418 51.6208C114.113 51.3381 113.733 51.1967 113.279 51.1967ZM120.146 50.4155C120.659 50.4155 121.121 50.542 121.53 50.7949C121.939 51.0405 122.259 51.379 122.49 51.8105C122.72 52.2421 122.836 52.722 122.836 53.2502C122.836 53.7785 122.717 54.2621 122.479 54.7011C122.248 55.1326 121.928 55.4749 121.519 55.7279C121.11 55.9734 120.652 56.0962 120.146 56.0962C119.744 56.0962 119.365 56.018 119.008 55.8618C118.658 55.6981 118.372 55.4749 118.148 55.1922V57.9823H117.289V50.5383H118.093V51.4088C118.301 51.0963 118.587 50.8545 118.952 50.6833C119.324 50.5048 119.722 50.4155 120.146 50.4155ZM120.023 55.3038C120.388 55.3038 120.715 55.2182 121.005 55.0471C121.303 54.8685 121.534 54.623 121.697 54.3105C121.869 53.998 121.954 53.6483 121.954 53.2614C121.954 52.8745 121.869 52.5248 121.697 52.2123C121.534 51.8998 121.303 51.6543 121.005 51.4757C120.715 51.2972 120.388 51.2079 120.023 51.2079C119.696 51.2079 119.387 51.2823 119.097 51.4311C118.814 51.5799 118.584 51.8068 118.405 52.1119C118.226 52.4169 118.137 52.7964 118.137 53.2502C118.137 53.7041 118.223 54.0873 118.394 54.3998C118.572 54.7048 118.803 54.9317 119.086 55.0806C119.376 55.2294 119.689 55.3038 120.023 55.3038ZM126.294 50.4155C126.934 50.4155 127.447 50.6052 127.834 50.9847C128.221 51.3641 128.414 51.911 128.414 52.6253V55.9734H127.611V55.2703C127.41 55.5381 127.153 55.7427 126.841 55.8841C126.528 56.0255 126.175 56.0962 125.78 56.0962C125.222 56.0962 124.765 55.9585 124.408 55.6832C124.058 55.4079 123.883 55.0359 123.883 54.5672C123.883 54.1059 124.062 53.7376 124.419 53.4623C124.776 53.187 125.248 53.0494 125.836 53.0494H127.555V52.5806C127.555 52.1342 127.436 51.7957 127.198 51.565C126.967 51.3269 126.647 51.2079 126.238 51.2079C125.91 51.2079 125.62 51.2823 125.367 51.4311C125.114 51.5725 124.876 51.7882 124.653 52.0784L124.084 51.6097C124.329 51.2079 124.646 50.9103 125.033 50.7168C125.419 50.5159 125.84 50.4155 126.294 50.4155ZM125.892 55.3819C126.189 55.3819 126.465 55.3186 126.718 55.1922C126.971 55.0582 127.172 54.8759 127.32 54.6453C127.477 54.4146 127.555 54.1617 127.555 53.8864V53.7525H125.937C125.557 53.7525 125.267 53.8194 125.066 53.9534C124.865 54.0798 124.765 54.2696 124.765 54.5225C124.765 54.7978 124.873 55.0099 125.088 55.1587C125.304 55.3075 125.572 55.3819 125.892 55.3819ZM135.217 49.3887H132.628V48.6075H138.688V49.3887H136.088V55.9734H135.217V49.3887ZM141.073 50.4155C141.712 50.4155 142.226 50.6052 142.613 50.9847C143 51.3641 143.193 51.911 143.193 52.6253V55.9734H142.389V55.2703C142.189 55.5381 141.932 55.7427 141.619 55.8841C141.307 56.0255 140.953 56.0962 140.559 56.0962C140.001 56.0962 139.544 55.9585 139.186 55.6832C138.837 55.4079 138.662 55.0359 138.662 54.5672C138.662 54.1059 138.84 53.7376 139.198 53.4623C139.555 53.187 140.027 53.0494 140.615 53.0494H142.334V52.5806C142.334 52.1342 142.215 51.7957 141.976 51.565C141.746 51.3269 141.426 51.2079 141.017 51.2079C140.689 51.2079 140.399 51.2823 140.146 51.4311C139.893 51.5725 139.655 51.7882 139.432 52.0784L138.863 51.6097C139.108 51.2079 139.424 50.9103 139.811 50.7168C140.198 50.5159 140.619 50.4155 141.073 50.4155ZM140.671 55.3819C140.968 55.3819 141.244 55.3186 141.497 55.1922C141.75 55.0582 141.95 54.8759 142.099 54.6453C142.256 54.4146 142.334 54.1617 142.334 53.8864V53.7525H140.715C140.336 53.7525 140.046 53.8194 139.845 53.9534C139.644 54.0798 139.544 54.2696 139.544 54.5225C139.544 54.7978 139.651 55.0099 139.867 55.1587C140.083 55.3075 140.351 55.3819 140.671 55.3819ZM147.873 50.4155C148.386 50.4155 148.847 50.542 149.257 50.7949C149.666 51.0405 149.986 51.379 150.216 51.8105C150.447 52.2421 150.562 52.722 150.562 53.2502C150.562 53.7785 150.443 54.2621 150.205 54.7011C149.975 55.1326 149.655 55.4749 149.246 55.7279C148.836 55.9734 148.379 56.0962 147.873 56.0962C147.471 56.0962 147.092 56.018 146.734 55.8618C146.385 55.6981 146.098 55.4749 145.875 55.1922V57.9823H145.016V50.5383H145.819V51.4088C146.028 51.0963 146.314 50.8545 146.679 50.6833C147.051 50.5048 147.449 50.4155 147.873 50.4155ZM147.75 55.3038C148.115 55.3038 148.442 55.2182 148.732 55.0471C149.03 54.8685 149.26 54.623 149.424 54.3105C149.595 53.998 149.681 53.6483 149.681 53.2614C149.681 52.8745 149.595 52.5248 149.424 52.2123C149.26 51.8998 149.03 51.6543 148.732 51.4757C148.442 51.2972 148.115 51.2079 147.75 51.2079C147.423 51.2079 147.114 51.2823 146.824 51.4311C146.541 51.5799 146.31 51.8068 146.132 52.1119C145.953 52.4169 145.864 52.7964 145.864 53.2502C145.864 53.7041 145.949 54.0873 146.121 54.3998C146.299 54.7048 146.53 54.9317 146.813 55.0806C147.103 55.2294 147.415 55.3038 147.75 55.3038ZM154.511 56.085C153.991 56.085 153.514 55.9585 153.083 55.7055C152.651 55.4526 152.309 55.1103 152.056 54.6788C151.803 54.2398 151.677 53.7636 151.677 53.2502C151.677 52.7294 151.803 52.2532 152.056 51.8217C152.309 51.3827 152.651 51.0405 153.083 50.7949C153.522 50.542 154.002 50.4155 154.523 50.4155C155.043 50.4155 155.52 50.542 155.951 50.7949C156.39 51.0479 156.736 51.3902 156.989 51.8217C157.242 52.2532 157.368 52.7294 157.368 53.2502C157.368 53.7636 157.242 54.2398 156.989 54.6788C156.736 55.1103 156.39 55.4526 155.951 55.7055C155.512 55.9585 155.032 56.085 154.511 56.085ZM154.511 55.2926C154.876 55.2926 155.207 55.2033 155.505 55.0248C155.81 54.8462 156.048 54.6044 156.219 54.2993C156.398 53.9868 156.487 53.6409 156.487 53.2614C156.487 52.8745 156.401 52.5248 156.23 52.2123C156.059 51.8998 155.821 51.6543 155.516 51.4757C155.218 51.2972 154.887 51.2079 154.523 51.2079C154.151 51.2079 153.816 51.2972 153.518 51.4757C153.221 51.6543 152.986 51.8998 152.815 52.2123C152.644 52.5248 152.558 52.8745 152.558 53.2614C152.558 53.6409 152.644 53.9868 152.815 54.2993C152.986 54.6044 153.221 54.8462 153.518 55.0248C153.816 55.2033 154.147 55.2926 154.511 55.2926Z" fill="#C5AB90"/>
<rect x="1.59246" y="19.6937" width="36.4372" height="51.8219" rx="3.64372" transform="rotate(-12.35 1.59246 19.6937)" stroke="#35424B" stroke-width="0.809717"/>
<path d="M19.1708 59.7314L19.4103 60.0561L19.4697 60.0431L19.3756 59.6134L17.2548 60.0777L17.3489 60.5075L17.4048 60.4952L17.4902 60.0994L18.1401 59.9571L18.6381 62.2317L18.4255 62.3478L18.4332 62.3827L19.2647 62.2007L19.2571 62.1657L19.0154 62.1491L18.5174 59.8745L19.1708 59.7314ZM20.3505 60.4727C20.457 60.3066 20.6525 60.1796 20.8097 60.1452C21.0648 60.0893 21.2054 60.2965 21.2734 60.6075L21.4922 61.6068L21.3216 61.7137L21.3292 61.7486L22.0874 61.5826L22.0798 61.5477L21.8556 61.5272L21.6238 60.4685C21.5442 60.1052 21.3315 59.9028 20.9611 59.9839C20.734 60.0336 20.4779 60.1849 20.3337 60.3958L20.3209 60.3877L20.2794 60.1478L20.1164 59.4036L20.0603 59.3646L19.545 59.536L19.5534 59.5744L19.773 59.574L20.2763 61.873L20.0812 61.9853L20.0889 62.0202L20.8471 61.8542L20.8394 61.8193L20.6397 61.7934L20.3505 60.4727ZM23.6421 60.3269L23.6811 60.2707C23.6851 60.2223 23.6771 60.1691 23.668 60.1272C23.5769 59.7114 23.1858 59.4968 22.7315 59.5962C22.2249 59.7072 21.9318 60.1411 22.0535 60.6967C22.1613 61.1893 22.5374 61.5024 23.1454 61.3693C23.4529 61.302 23.6543 61.1517 23.788 60.943L23.7404 60.9095C23.6231 61.0926 23.4676 61.1853 23.2719 61.2281C22.8177 61.3275 22.5298 61.083 22.4227 60.5939L23.6421 60.3269ZM22.757 59.6456C23.0156 59.589 23.2228 59.7999 23.3292 60.2855L22.4113 60.5414C22.3067 59.9968 22.5054 59.7007 22.757 59.6456ZM27.0844 58.0317L27.2865 57.9179L27.2789 57.8829L26.7653 57.9954L26.3501 60.2466L25.0253 58.3764L24.4907 58.4934L24.4983 58.5284L24.74 58.545L25.0684 60.8311L24.8558 60.9472L24.862 60.9752L25.3756 60.8627L25.3695 60.8347L25.1418 60.815L24.8468 58.7486L26.2246 60.6768L26.3399 60.6516L26.7727 58.3306L27.3624 60.3215L27.1499 60.4376L27.1575 60.4725L27.9751 60.2935L27.9674 60.2586L27.7363 60.2396L27.0844 58.0317ZM29.2601 59.7925C29.3135 59.9529 29.4194 59.9846 29.5661 59.9525C29.7059 59.9219 29.8116 59.8695 29.8634 59.7886L29.8336 59.7695C29.8118 59.8035 29.7616 59.8255 29.7267 59.8331C29.6708 59.8454 29.6383 59.8305 29.6237 59.7641L29.3904 58.6985C29.3246 58.398 29.0226 58.2225 28.5544 58.325C28.205 58.4015 27.8997 58.6294 27.9601 58.9054C27.9915 59.0487 28.0992 59.1057 28.218 59.0797C28.3403 59.0529 28.412 58.9457 28.3806 58.8024L28.3187 58.5194C28.3903 58.4451 28.4688 58.4023 28.5596 58.3824C28.7937 58.3312 28.9597 58.4706 29.0125 58.7117L29.0844 59.0401C28.4241 59.3018 28.0248 59.4515 28.1143 59.8603C28.1678 60.1049 28.3498 60.2335 28.6747 60.1623C28.9158 60.1095 29.1195 59.9697 29.2473 59.7843L29.2601 59.7925ZM29.2298 59.7039C29.1412 59.8515 28.9938 59.9643 28.8366 59.9987C28.6584 60.0377 28.5221 59.9504 28.4747 59.7338C28.3921 59.3564 28.6201 59.2772 29.0959 59.0925L29.2298 59.7039ZM31.1236 57.8869L31.3452 57.7615L31.3375 57.7266L30.6038 57.8873C30.5611 57.8929 30.5184 57.8986 30.4765 57.9078C30.0467 58.0019 29.7944 58.2878 29.8709 58.6372C29.9122 58.8259 30.0317 58.9535 30.1999 59.0192C30.0763 59.2074 30.0204 59.3368 30.0571 59.5045C30.0962 59.6827 30.2037 59.7726 30.3744 59.7829C30.2157 59.9275 30.1034 60.0838 30.1371 60.2376C30.183 60.4472 30.4777 60.4889 30.9214 60.3917C31.5678 60.2502 31.8434 59.9702 31.7638 59.6068C31.7041 59.3343 31.502 59.2138 31.1107 59.2994L30.5202 59.4287C30.3315 59.47 30.2304 59.4263 30.2021 59.297C30.186 59.2236 30.1949 59.1301 30.2471 59.0345C30.3812 59.0784 30.5461 59.0789 30.7243 59.0399C31.1576 58.945 31.4106 58.6626 31.3349 58.3167C31.2913 58.1175 31.159 57.9817 30.9734 57.9198L31.1236 57.8869ZM30.216 58.558C30.1418 58.2191 30.2643 58.0092 30.4879 57.9602C30.715 57.9105 30.9148 58.0535 30.9882 58.3889C31.0624 58.7278 30.9399 58.9377 30.7128 58.9874C30.4892 59.0364 30.291 58.9004 30.216 58.558ZM30.5894 59.7614L31.2183 59.6237C31.4384 59.5755 31.5433 59.6697 31.5716 59.799C31.6228 60.0331 31.3906 60.2267 30.9818 60.3162C30.6743 60.3836 30.4653 60.3488 30.411 60.1007C30.3919 60.0134 30.3988 59.9276 30.483 59.7774C30.5152 59.774 30.551 59.7698 30.5894 59.7614ZM31.9629 59.4204L32.7456 59.249L32.7379 59.2141L32.5137 59.1936L32.1588 57.5724L32.1026 57.5334L31.5873 57.7049L31.5957 57.7433L31.8153 57.7428L32.1504 59.2732L31.9553 59.3855L31.9629 59.4204ZM31.5921 57.1583C31.6235 57.3015 31.7512 57.3834 31.8945 57.352C32.0377 57.3206 32.1231 57.1921 32.0917 57.0489C32.0604 56.9056 31.9291 56.8245 31.7859 56.8559C31.6426 56.8872 31.5607 57.015 31.5921 57.1583ZM33.8503 57.6268C33.8816 57.77 33.9881 57.8383 34.1174 57.81C34.2397 57.7832 34.318 57.6892 34.2851 57.5389C34.2208 57.2454 33.816 57.1693 33.4491 57.2496C32.8761 57.3751 32.6374 57.7898 32.7575 58.3384C32.8723 58.8625 33.2411 59.1589 33.8315 59.0296C34.139 58.9623 34.3335 58.8135 34.4672 58.6048L34.4196 58.5713C34.3104 58.7417 34.158 58.8483 33.9518 58.8934C33.5151 58.989 33.2316 58.7142 33.1184 58.1971C33.0143 57.7219 33.1357 57.3732 33.4676 57.3005C33.5689 57.2783 33.6694 57.2856 33.7845 57.3263L33.8503 57.6268ZM34.8154 58.7958L35.5981 58.6245L35.5904 58.5895L35.3662 58.5691L35.0113 56.9479L34.9552 56.9089L34.4398 57.0803L34.4482 57.1187L34.6678 57.1183L35.0029 58.6486L34.8078 58.7609L34.8154 58.7958ZM34.4446 56.5337C34.476 56.6769 34.6037 56.7588 34.747 56.7275C34.8903 56.6961 34.9756 56.5676 34.9442 56.4243C34.9129 56.281 34.7816 56.1999 34.6384 56.2313C34.4951 56.2627 34.4132 56.3904 34.4446 56.5337ZM36.8964 58.1205C36.9498 58.2809 37.0556 58.3127 37.2023 58.2806C37.3421 58.25 37.4478 58.1975 37.4996 58.1166L37.4698 58.0975C37.448 58.1316 37.3979 58.1535 37.3629 58.1612C37.307 58.1734 37.2745 58.1586 37.26 58.0922L37.0266 57.0265C36.9608 56.726 36.6588 56.5505 36.1906 56.653C35.8412 56.7295 35.5359 56.9575 35.5964 57.2335C35.6277 57.3768 35.7354 57.4337 35.8542 57.4077C35.9765 57.3809 36.0482 57.2737 36.0169 57.1305L35.9549 56.8474C36.0265 56.7732 36.105 56.7304 36.1959 56.7105C36.4299 56.6592 36.5959 56.7986 36.6487 57.0397L36.7206 57.3681C36.0603 57.6299 35.661 57.7796 35.7505 58.1883C35.8041 58.4329 35.986 58.5615 36.311 58.4904C36.552 58.4376 36.7558 58.2978 36.8836 58.1124L36.8964 58.1205ZM36.866 58.032C36.7775 58.1795 36.6301 58.2923 36.4729 58.3268C36.2947 58.3658 36.1584 58.2785 36.1109 58.0618C36.0283 57.6845 36.2563 57.6053 36.7321 57.4205L36.866 58.032ZM37.8989 56.6305C37.9928 56.4745 38.1694 56.3443 38.3441 56.306C38.6061 56.2486 38.7552 56.4613 38.8218 56.7653L39.0406 57.7646L38.8699 57.8715L38.8776 57.9064L39.6358 57.7404L39.6281 57.7055L39.4039 57.685L39.1721 56.6263C39.0933 56.2665 38.8798 56.0606 38.5095 56.1417C38.2824 56.1914 38.0227 56.3434 37.882 56.5536L37.8693 56.5455L37.8331 56.33L37.7769 56.2911L37.2616 56.4625L37.27 56.5009L37.4896 56.5004L37.8247 58.0308L37.6296 58.1431L37.6372 58.178L38.3954 58.012L38.3878 57.9771L38.188 57.9512L37.8989 56.6305Z" fill="#35424B"/>
<path d="M20.6552 20.4811L20.8573 20.3672L20.8496 20.3323L20.0355 20.5106L20.0432 20.5455L20.2848 20.5622L20.776 22.8053L20.5634 22.9214L20.571 22.9563L21.3851 22.7781L21.3775 22.7431L21.1463 22.7242L20.6552 20.4811Z" fill="#35424B"/>
<g clip-path="url(#clip0_5_345)">
<path d="M25.718 42.2228C25.6666 42.2342 25.6132 42.2326 25.5626 42.2184L23.6433 41.6903L22.119 42.9724C22.0727 43.0112 22.0165 43.0363 21.9568 43.0449C21.897 43.0535 21.836 43.0452 21.7807 43.0209C21.7254 42.9967 21.678 42.9575 21.6438 42.9077C21.6096 42.858 21.59 42.7996 21.5872 42.7393L21.4997 40.7499L19.8104 39.6974C19.7599 39.6654 19.7192 39.62 19.6929 39.5663C19.6666 39.5126 19.6556 39.4527 19.6613 39.3932C19.6669 39.3337 19.6889 39.2769 19.7249 39.2291C19.7608 39.1813 19.8093 39.1444 19.8649 39.1225L21.728 38.4214L22.2064 36.4878C22.2206 36.4286 22.2512 36.3747 22.2947 36.3321C22.3381 36.2895 22.3927 36.26 22.4521 36.247C22.5115 36.234 22.5734 36.2379 22.6307 36.2585C22.688 36.279 22.7383 36.3153 22.7759 36.3631L24.0162 37.9178L26.0029 37.7785C26.0632 37.7742 26.1235 37.7869 26.177 37.8151C26.2305 37.8432 26.275 37.8858 26.3055 37.938C26.3361 37.9902 26.3514 38.0498 26.3498 38.1103C26.3481 38.1707 26.3297 38.2295 26.2964 38.2799L25.2014 39.942L25.9501 41.7867C25.9679 41.8304 25.9759 41.8775 25.9736 41.9247C25.9713 41.9718 25.9587 42.0179 25.9367 42.0597C25.9147 42.1014 25.8838 42.1379 25.8463 42.1665C25.8087 42.1951 25.7653 42.2151 25.7192 42.2252L25.718 42.2228ZM23.4957 41.0164C23.5468 41.0052 23.5999 41.0066 23.6504 41.0204L25.102 41.42L24.5355 40.0229C24.5157 39.9742 24.508 39.9214 24.5132 39.8691C24.5184 39.8168 24.5362 39.7665 24.5652 39.7226L25.3935 38.469L23.8918 38.5763C23.8394 38.58 23.787 38.5708 23.7389 38.5497C23.6908 38.5286 23.6486 38.4961 23.6159 38.455L22.6775 37.2792L22.3155 38.7397C22.3029 38.7908 22.2781 38.838 22.2431 38.8773C22.2082 38.9166 22.1642 38.9469 22.1149 38.9653L20.7058 39.4954L21.984 40.2904C22.0281 40.3181 22.0649 40.356 22.0912 40.4009C22.1175 40.4458 22.1327 40.4964 22.1353 40.5484L22.2045 42.0518L23.3556 41.0822C23.3963 41.0493 23.4444 41.0267 23.4957 41.0164Z" fill="#35424B"/>
<path d="M29.7056 44.6892C29.6545 44.7005 29.6014 44.6991 29.5509 44.6853L28.3513 44.3551L27.3995 45.1564C27.3532 45.1952 27.297 45.2203 27.2373 45.2289C27.1775 45.2375 27.1165 45.2292 27.0612 45.205C27.0059 45.1807 26.9585 45.1415 26.9243 45.0918C26.8901 45.042 26.8705 44.9837 26.8677 44.9233L26.8111 43.6805L25.7546 43.0225C25.7032 42.9906 25.6619 42.9449 25.6352 42.8907C25.6084 42.8365 25.5974 42.7759 25.6034 42.7157C25.6093 42.6556 25.632 42.5983 25.6688 42.5503C25.7056 42.5024 25.7551 42.4657 25.8117 42.4444L26.9757 42.0065L27.2749 40.7985C27.2891 40.7393 27.3196 40.6853 27.3631 40.6427C27.4065 40.6001 27.4611 40.5706 27.5205 40.5576C27.58 40.5446 27.6419 40.5486 27.6991 40.5691C27.7564 40.5897 27.8067 40.6259 27.8444 40.6738L28.6195 41.6486L29.86 41.56C29.9203 41.5557 29.9806 41.5683 30.0341 41.5965C30.0875 41.6247 30.1321 41.6673 30.1626 41.7195C30.1931 41.7716 30.2085 41.8313 30.2068 41.8917C30.2052 41.9522 30.1867 42.0109 30.1535 42.0614L29.4685 43.1006L29.9365 44.2534C29.9541 44.2971 29.9621 44.3442 29.9597 44.3913C29.9573 44.4383 29.9447 44.4843 29.9227 44.526C29.9007 44.5677 29.8698 44.6041 29.8323 44.6327C29.7948 44.6612 29.7515 44.6812 29.7054 44.6913L29.7056 44.6892ZM28.2038 43.6812C28.255 43.67 28.3082 43.6716 28.3586 43.6858L29.0896 43.8865L28.8033 43.1846C28.7835 43.1359 28.7758 43.0831 28.781 43.0308C28.7862 42.9785 28.804 42.9282 28.833 42.8843L29.2501 42.2512L28.494 42.3054C28.4417 42.309 28.3892 42.2999 28.3411 42.2788C28.2931 42.2576 28.2509 42.2251 28.2181 42.1841L27.7449 41.5914L27.5619 42.3277C27.5494 42.3787 27.5246 42.4259 27.4898 42.4652C27.455 42.5044 27.4111 42.5347 27.362 42.5532L26.6525 42.82L27.296 43.2208C27.3406 43.2486 27.3778 43.2868 27.4044 43.3322C27.431 43.3776 27.4461 43.4287 27.4485 43.4812L27.4816 44.2385L28.0618 43.7508C28.1026 43.7161 28.1514 43.6921 28.2038 43.6812Z" fill="#35424B"/>
<path d="M24.1235 44.556L21.2323 45.189C21.1484 45.2074 21.0606 45.1917 20.9883 45.1453C20.916 45.099 20.865 45.0258 20.8466 44.9419C20.8283 44.858 20.844 44.7702 20.8903 44.6979C20.9367 44.6255 21.0099 44.5746 21.0938 44.5562L23.985 43.9232C24.0689 43.9048 24.1566 43.9205 24.229 43.9669C24.3013 44.0132 24.3522 44.0864 24.3706 44.1703C24.389 44.2542 24.3733 44.342 24.3269 44.4143C24.2806 44.4866 24.2074 44.5376 24.1235 44.556Z" fill="#35424B"/>
<path d="M25.9921 45.5189L21.519 46.4983C21.4351 46.5167 21.3473 46.501 21.275 46.4546C21.2026 46.4083 21.1517 46.3351 21.1333 46.2512C21.1149 46.1673 21.1306 46.0795 21.177 46.0072C21.2233 45.9349 21.2965 45.8839 21.3804 45.8655L25.8536 44.8861C25.9375 44.8678 26.0253 44.8835 26.0976 44.9298C26.1699 44.9762 26.2209 45.0494 26.2392 45.1333C26.2576 45.2172 26.2419 45.3049 26.1955 45.3773C26.1492 45.4496 26.076 45.5006 25.9921 45.5189Z" fill="#35424B"/>
</g>
<rect x="30.9255" y="7.54224" width="37.247" height="52.6316" rx="4.04858" transform="rotate(6.43784 30.9255 7.54224)" fill="#C5AB90"/>
<rect x="32.7551" y="9.38105" width="33.4978" height="49.4757" rx="2.83401" transform="rotate(6.43784 32.7551 9.38105)" stroke="#F7F6F2" stroke-width="0.809717"/>
<path d="M42.4629 31.6606C42.3562 31.6486 42.2491 31.6794 42.1652 31.7464C42.0812 31.8133 42.0273 31.9108 42.0152 32.0175C42.0032 32.1242 42.034 32.2313 42.1009 32.3153C42.1679 32.3993 42.2654 32.4532 42.3721 32.4653L51.2228 33.4644C51.3295 33.4764 51.4366 33.4456 51.5205 33.3787C51.6045 33.3117 51.6584 33.2142 51.6705 33.1075C51.6825 33.0008 51.6517 32.8937 51.5848 32.8097C51.5178 32.7258 51.4203 32.6718 51.3136 32.6598L42.4629 31.6606Z" fill="#F7F6F2"/>
<path d="M43.1669 39.4283L43.5572 39.1179L41.6455 38.9021C41.5388 38.8901 41.4317 38.9209 41.3477 38.9878C41.2638 39.0548 41.2098 39.1523 41.1978 39.259C41.1857 39.3657 41.2166 39.4728 41.2835 39.5568C41.3504 39.6407 41.448 39.6947 41.5547 39.7067L42.8292 39.8506C42.9058 39.6914 43.0192 39.5461 43.1669 39.4283Z" fill="#F7F6F2"/>
<path d="M45.4348 37.6227C45.277 37.5421 45.1387 37.4279 45.0296 37.2882C44.9205 37.1485 44.8433 36.9867 44.8033 36.814L41.918 36.4883C41.8113 36.4762 41.7042 36.5071 41.6202 36.574C41.5363 36.6409 41.4823 36.7385 41.4703 36.8452C41.4582 36.9519 41.4891 37.059 41.556 37.1429C41.6229 37.2269 41.7205 37.2808 41.8272 37.2929L45.3497 37.6905L45.4348 37.6227Z" fill="#F7F6F2"/>
<path d="M46.0486 35.3249L46.2706 35.3222C46.3618 35.2981 46.4417 35.2429 46.4965 35.1661C46.5514 35.0894 46.5777 34.9959 46.5709 34.9018C46.5641 34.8077 46.5247 34.7189 46.4595 34.6508C46.3942 34.5826 46.3072 34.5394 46.2135 34.5286L42.1904 34.0745C42.0838 34.0624 41.9766 34.0933 41.8927 34.1602C41.8087 34.2271 41.7548 34.3247 41.7427 34.4314C41.7307 34.5381 41.7615 34.6452 41.8285 34.7291C41.8954 34.8131 41.9929 34.867 42.0996 34.8791L46.0486 35.3249Z" fill="#F7F6F2"/>
<path d="M48.7182 33.9966C48.8163 34.0077 48.907 34.0543 48.9732 34.1277C49.0393 34.201 49.0764 34.296 49.0774 34.3948L49.0831 34.9936C49.0869 35.3547 49.2112 35.7042 49.4364 35.9865C49.6616 36.2688 49.9747 36.4678 50.3259 36.5517L50.9083 36.6908C51.0048 36.7135 51.0896 36.7707 51.1466 36.8518C51.2037 36.9328 51.2291 37.0319 51.218 37.1304C51.2069 37.2288 51.16 37.3198 51.0863 37.386C51.0126 37.4523 50.9172 37.4892 50.8181 37.4898L50.2193 37.4955C49.8582 37.4993 49.5088 37.6237 49.2264 37.8488C48.9441 38.074 48.7452 38.3871 48.6612 38.7383L48.5221 39.3207C48.4994 39.4172 48.4422 39.502 48.3612 39.5591C48.2802 39.6161 48.181 39.6415 48.0826 39.6304C47.9841 39.6193 47.8931 39.5724 47.8269 39.4987C47.7606 39.425 47.7237 39.3296 47.7231 39.2305L47.7174 38.6318C47.7136 38.2707 47.5893 37.9212 47.3641 37.6389C47.1389 37.3565 46.8258 37.1576 46.4746 37.0736L45.8922 36.9345C45.7958 36.9119 45.7109 36.8546 45.6539 36.7736C45.5968 36.6926 45.5714 36.5935 45.5825 36.495C45.5936 36.3965 45.6405 36.3055 45.7142 36.2393C45.7879 36.1731 45.8833 36.1361 45.9824 36.1356L46.5812 36.1298C46.9423 36.126 47.2918 36.0017 47.5741 35.7765C47.8564 35.5513 48.0553 35.2383 48.1393 34.887L48.2784 34.3046C48.3014 34.2084 48.3588 34.124 48.4399 34.0672C48.5209 34.0104 48.6199 33.9853 48.7182 33.9966ZM48.4935 35.9871C48.2517 36.3021 47.9356 36.5541 47.5747 36.7195C47.8897 36.9612 48.1416 37.2773 48.3071 37.6382C48.5488 37.3232 48.8649 37.0713 49.2258 36.9059C48.9103 36.664 48.6589 36.3486 48.4935 35.9871Z" fill="#F7F6F2"/>
<path d="M46.9262 37.9882C46.9931 38.0722 47.024 38.1793 47.0119 38.2859C46.9999 38.3926 46.946 38.4901 46.862 38.5571L44.1761 40.6952C44.1346 40.7294 44.0868 40.755 44.0353 40.7706C43.9839 40.7861 43.9298 40.7913 43.8763 40.7857C43.8229 40.7801 43.771 40.764 43.7239 40.7382C43.6767 40.7124 43.6352 40.6774 43.6017 40.6354C43.5682 40.5933 43.5434 40.5451 43.5287 40.4933C43.5141 40.4416 43.5099 40.3875 43.5164 40.3341C43.5229 40.2807 43.5399 40.2292 43.5665 40.1825C43.5932 40.1358 43.6288 40.0949 43.6714 40.0621L46.3575 37.9232C46.4414 37.8563 46.5485 37.8255 46.6552 37.8375C46.7619 37.8496 46.8594 37.9035 46.9263 37.9874L46.9262 37.9882Z" fill="#F7F6F2"/>
<path d="M41.3203 55.059L41.4376 55.0723L42.6841 52.7977L42.9334 52.7575L42.9374 52.7219L42.3047 52.6505L42.3007 52.6861L42.6059 52.7889L41.5776 54.6922L40.9852 52.606L41.2274 52.565L41.2314 52.5294L40.3748 52.4328L40.3708 52.4683L40.5906 52.5615L40.7418 53.0717L39.9712 54.5109L39.3787 52.4247L39.6209 52.3837L39.6249 52.3481L38.7683 52.2515L38.7643 52.287L38.9842 52.3802L39.7138 54.8778L39.8275 54.8906L40.7705 53.1685L41.3203 55.059ZM43.6228 55.1029C43.6218 55.2719 43.7117 55.3361 43.861 55.3529C44.0032 55.369 44.1201 55.3534 44.1953 55.2935L44.1732 55.2658C44.1415 55.291 44.087 55.2957 44.0515 55.2916C43.9946 55.2852 43.9686 55.2607 43.9762 55.1932L44.0985 54.1091C44.133 53.8035 43.9036 53.54 43.4273 53.4863C43.0719 53.4462 42.7095 53.5637 42.6778 53.8444C42.6614 53.9902 42.745 54.0788 42.8658 54.0924C42.9902 54.1065 43.0926 54.028 43.1091 53.8823L43.1416 53.5944C43.2333 53.5472 43.3214 53.5319 43.4138 53.5423C43.6519 53.5692 43.7642 53.7547 43.7365 53.9999L43.6988 54.334C42.9894 54.3691 42.5631 54.3822 42.5162 54.7981C42.4882 55.0469 42.619 55.2272 42.9495 55.2645C43.1948 55.2922 43.4327 55.2254 43.6134 55.091L43.6228 55.1029ZM43.6226 55.0093C43.4913 55.1204 43.3154 55.1798 43.1555 55.1617C42.9742 55.1413 42.8733 55.0147 42.8982 54.7944C42.9415 54.4105 43.1828 54.4089 43.6928 54.3873L43.6226 55.0093ZM45.0518 54.0151C45.1911 53.8977 45.4001 53.8313 45.5778 53.8513C45.8444 53.8814 45.917 54.1308 45.8821 54.44L45.7674 55.4565L45.5715 55.5027L45.5674 55.5383L46.3387 55.6253L46.3427 55.5898L46.1371 55.4982L46.2586 54.4213C46.2999 54.0552 46.1641 53.7915 45.7873 53.749C45.5563 53.7229 45.2616 53.7832 45.0606 53.9369L45.0512 53.9251L45.0863 53.7095L45.0457 53.6545L44.5026 53.6508L44.4982 53.6899L44.7062 53.7602L44.5306 55.3169L44.3097 55.3604L44.3057 55.3959L45.077 55.4829L45.081 55.4474L44.9002 55.3586L45.0518 54.0151ZM48.16 55.712L48.4327 53.2952L48.3921 53.2402L47.8525 53.2369L47.8481 53.276L48.0562 53.3463L47.9719 54.0927C47.8745 54.0313 47.7518 53.9706 47.5669 53.9498C47.0196 53.888 46.6577 54.1927 46.5895 54.7969C46.5321 55.3052 46.7159 55.6859 47.1958 55.74C47.4374 55.7673 47.6469 55.6973 47.8059 55.5641L47.8154 55.576L47.7847 55.7525L47.8256 55.8039L48.3636 55.8214L48.368 55.7823L48.16 55.712ZM47.8151 55.4824C47.698 55.5951 47.547 55.6573 47.3871 55.6392C47.0814 55.6047 46.9225 55.2592 46.9762 54.783C47.036 54.2534 47.2695 53.9702 47.6249 54.0103C47.7422 54.0235 47.8488 54.068 47.9663 54.1424L47.8151 55.4824ZM48.6128 55.8135L48.6443 55.8531L48.7258 55.8011C48.856 55.8914 49.019 55.9457 49.2074 55.967C49.7085 56.0235 49.9324 55.8256 49.9665 55.5235C50.0102 55.1361 49.6869 55.0025 49.385 54.8712C49.1545 54.7768 49.001 54.7019 49.0234 54.5029C49.0451 54.3109 49.21 54.1892 49.4552 54.2168C49.6258 54.2361 49.856 54.334 49.8885 54.6833L49.9596 54.6913L50.0029 54.3074L49.9714 54.2679L49.8899 54.3199C49.7696 54.2379 49.6141 54.1808 49.447 54.1619C48.9992 54.1114 48.7931 54.3113 48.7594 54.6099C48.7165 54.9902 49.0062 55.102 49.2888 55.2131C49.558 55.3155 49.7297 55.3888 49.7053 55.6056C49.68 55.8296 49.4799 55.9438 49.2063 55.9129C48.9966 55.8892 48.7673 55.7842 48.7311 55.4345L48.6565 55.4261L48.6128 55.8135Z" fill="#F7F6F2"/>
<path d="M48.0399 15.1039L48.2678 15.0612L48.2718 15.0257L47.4437 14.9323L47.4397 14.9678L47.6631 15.0614L47.4056 17.3432L47.167 17.3846L47.163 17.4202L47.9911 17.5136L47.9951 17.4781L47.7824 17.3857L48.0399 15.1039ZM49.0221 15.2147L49.2501 15.1721L49.2541 15.1365L48.426 15.0431L48.422 15.0786L48.6454 15.1722L48.3879 17.454L48.1493 17.4955L48.1453 17.531L48.9734 17.6245L48.9774 17.5889L48.7646 17.4965L49.0221 15.2147ZM50.0044 15.3256L50.2324 15.2829L50.2364 15.2474L49.4082 15.1539L49.4042 15.1895L49.6276 15.2831L49.3702 17.5648L49.1315 17.6063L49.1275 17.6419L49.9556 17.7353L49.9596 17.6998L49.7469 17.6074L50.0044 15.3256Z" fill="#F7F6F2"/>
<defs>
<clipPath id="clip0_5_345">
<rect width="12.9555" height="12.9555" fill="white" transform="translate(17.2301 35.7869) rotate(-12.35)"/>
</clipPath>
</defs>
</svg>
