<svg width="27" height="28" viewBox="0 0 27 28" fill="none" xmlns="http://www.w3.org/2000/svg">
<path fill-rule="evenodd" clip-rule="evenodd" d="M14.3951 0.0382405C13.9685 0.18739 13.5909 0.620038 13.2098 1.39618C12.8389 2.15161 12.6401 2.89819 12.5835 3.74879C12.5294 4.55967 12.3691 5.51336 12.0011 7.21435C11.5704 9.20459 11.4079 10.5841 11.5307 11.2089C11.6304 11.7166 11.4811 12.4876 11.2402 12.7092C11.1648 12.7786 11.0963 12.7908 10.489 12.8427C10.1215 12.8742 9.31757 12.9452 8.70257 13.0006C7.45977 13.1126 6.383 13.1855 5.21251 13.237C4.2813 13.278 3.79331 13.3192 3.38277 13.3918C3.11003 13.44 3.06629 13.458 2.96894 13.562L2.86004 13.6784L2.63308 13.569C2.46939 13.4901 2.31958 13.3753 2.09564 13.1574C1.78428 12.8543 1.69673 12.7203 1.55119 12.3242C1.31295 11.6758 0.789648 11.9443 0.257769 12.9879C-0.0278067 13.5481 -0.0699245 13.8533 0.100851 14.1244C0.225545 14.3223 0.460701 14.4646 0.834375 14.5682C1.07363 14.6344 1.19073 14.6454 1.67162 14.6461C2.13065 14.6468 2.25903 14.6362 2.38898 14.5871C2.57297 14.5176 2.62085 14.4699 2.65084 14.3264C2.68963 14.1406 2.76106 14.1337 2.99669 14.2929C3.39622 14.5629 3.84732 14.6133 5.63298 14.5872C7.47678 14.5604 8.68099 14.4535 10.7742 14.1311C11.2428 14.0589 11.6354 13.9999 11.6468 13.9999C11.6581 13.9999 11.6675 14.5636 11.6676 15.2525C11.6678 16.9051 11.7355 17.9905 11.989 20.4038C12.1709 22.1355 12.2545 23.2497 12.3116 24.7008C12.3637 26.0263 12.461 26.9387 12.5984 27.392C12.664 27.6083 12.8579 27.8261 13.0717 27.9235C13.6496 28.187 13.8864 27.7899 13.9732 26.4119C14.0428 25.3074 13.9274 23.6533 13.5842 20.8352C13.2347 17.9648 13.0593 14.6167 13.2275 14.0257C13.258 13.9184 13.2814 13.8973 13.4052 13.8646C13.9033 13.7332 15.3405 13.5043 17.7666 13.1698C18.7077 13.04 20.141 12.837 20.9517 12.7187C23.9314 12.2838 24.3423 12.2334 25.5091 12.1601C26.5727 12.0932 27 11.9828 27 11.775C27 11.453 25.3084 11.2553 23.279 11.3401C22.189 11.3856 21.6965 11.4284 20.0029 11.625C19.3041 11.7061 18.4273 11.7962 18.0546 11.8251C17.6819 11.8541 17.0796 11.9008 16.7162 11.9289C16.3528 11.9571 15.4181 12.0538 14.6391 12.1439C13.8601 12.234 13.2159 12.3077 13.2075 12.3077C13.1794 12.3077 13.1925 10.8716 13.2263 10.2407C13.2901 9.05372 13.4354 7.97234 13.7848 6.0862C14.0157 4.83985 14.2006 3.7312 14.3101 2.93777C14.4331 2.0453 14.6212 1.27676 14.8027 0.925105C15.0791 0.389363 15.0105 -0.00655403 14.6423 8.2198e-05C14.5623 0.00150899 14.451 0.0186969 14.3951 0.0382405Z" fill="#C5AB90"/>
</svg>
