<svg width="44" height="44" viewBox="0 0 44 44" fill="none" xmlns="http://www.w3.org/2000/svg">
<path d="M21.0613 39.8825C21.6003 40.1704 22.2768 40.1685 22.8158 39.8807C37.5045 31.99 38.5477 16.5735 38.5348 12.19C38.5334 11.8377 38.4293 11.4935 38.2352 11.1994C38.0412 10.9054 37.7656 10.6743 37.4422 10.5345L22.6838 3.99686C22.449 3.89333 22.1951 3.84002 21.9384 3.84033C21.6817 3.84065 21.4279 3.89459 21.1933 3.9987L6.53766 10.5364C6.21902 10.6762 5.9473 10.9047 5.75487 11.1947C5.56245 11.4846 5.45743 11.8238 5.45232 12.1717C5.38999 16.5332 6.26816 31.9827 21.0613 39.8825ZM15.9023 18.8707L20.1062 23.0745L27.9767 15.204L30.569 17.7964L20.1062 28.2592L13.31 21.463L15.9023 18.8707Z" fill="#C5AB90"/>
</svg>
