<svg width="50" height="50" viewBox="0 0 50 50" fill="none" xmlns="http://www.w3.org/2000/svg">
<path d="M31.4021 4.16675H18.6187C6.94374 4.16675 4.16666 6.94383 4.16666 18.598V31.3813C4.16666 43.0543 6.92291 45.8334 18.5979 45.8334H31.3812C43.0542 45.8334 45.8333 43.0772 45.8333 31.4022V18.6188C45.8333 6.94383 43.0771 4.16675 31.4021 4.16675ZM37.8042 33.8959H34.7646C33.6146 33.8959 33.2687 32.9647 31.2062 30.9022C29.4062 29.1667 28.6458 28.9501 28.1896 28.9501C27.5604 28.9501 27.3875 29.123 27.3875 29.9918V32.7251C27.3875 33.4647 27.1479 33.898 25.2167 33.898C23.3424 33.772 21.5248 33.2026 19.9137 32.2366C18.3026 31.2706 16.9441 29.9357 15.95 28.3417C13.5899 25.4042 11.9478 21.9566 11.1542 18.273C11.1542 17.8167 11.3271 17.4042 12.1958 17.4042H15.2333C16.0146 17.4042 16.2958 17.7522 16.6021 18.5542C18.0771 22.8959 20.5937 26.6709 21.6146 26.6709C22.0062 26.6709 22.1771 26.498 22.1771 25.5209V21.0501C22.0479 19.0105 20.9646 18.8376 20.9646 18.1001C20.9785 17.9056 21.0676 17.7241 21.2131 17.5942C21.3586 17.4643 21.5489 17.3962 21.7437 17.4042H26.5187C27.1708 17.4042 27.3875 17.7292 27.3875 18.5105V24.5438C27.3875 25.1959 27.6687 25.4126 27.8646 25.4126C28.2562 25.4126 28.5583 25.1959 29.275 24.4792C30.8143 22.6021 32.0719 20.5107 33.0083 18.2709C33.104 18.0019 33.2851 17.7715 33.524 17.6151C33.7629 17.4586 34.0464 17.3845 34.3312 17.4042H37.3708C38.2812 17.4042 38.475 17.8605 38.2812 18.5105C37.176 20.9864 35.8085 23.3366 34.2021 25.5209C33.875 26.0209 33.7437 26.2813 34.2021 26.8667C34.5042 27.323 35.5687 28.2126 36.2854 29.0584C37.3269 30.0973 38.1917 31.2992 38.8458 32.6168C39.1062 33.4626 38.6708 33.898 37.8042 33.898V33.8959Z" fill="white"/>
</svg>
